<?xml version="1.0" encoding="utf-8"?>
<!-- Generator: Adobe Illustrator 25.4.1, SVG Export Plug-In . SVG Version: 6.00 Build 0)  -->
<svg version="1.1" id="Layer_1" xmlns="http://www.w3.org/2000/svg" xmlns:xlink="http://www.w3.org/1999/xlink" x="0px" y="0px"
	 viewBox="0 0 1696 768" style="enable-background:new 0 0 1696 768;" xml:space="preserve">
<style type="text/css">
	.st0{fill:#CDBEAD;}
	.st1{fill:#CDBFAE;}
	.st2{fill:#FEFEFE;}
	.st3{fill:#FEFEFD;}
	.st4{fill:#D6CFC8;}
	.st5{fill:#D7CFC7;}
</style>
<g>
	<path class="st0" d="M223.21,248.35c2.57-2.3,4.92-4.61,7.48-6.65c6.7-5.34,14.31-8.85,22.68-10.72c4.57-1.02,9.21-1.4,13.86-1.27
		c10.01,0.27,19.32,3.04,27.85,8.32c9.79,6.05,17.12,14.32,21.92,24.78c2.7,5.89,4.29,12.08,4.84,18.57
		c0.72,8.45-0.37,16.64-3.32,24.56c-1.05,2.82-2.46,5.51-3.81,8.21c-0.38,0.75-0.44,1.2,0.14,1.87
		c7.25,8.42,13.36,17.61,18.26,27.59c5.61,11.42,9.62,23.37,11.65,35.95c0.6,3.7,1.09,7.44,1.28,11.17
		c0.33,6.38,0.71,12.78,0.47,19.15c-0.36,9.45-2.03,18.75-4.57,27.88c-2.55,9.15-6.03,17.92-10.47,26.31
		c-4.52,8.55-9.89,16.53-16.18,23.88c-8.66,10.13-18.53,18.88-29.77,26.05c-11.96,7.63-24.79,13.34-38.58,16.69
		c-5.58,1.36-11.27,2.27-16.96,3.15c-3.44,0.53-6.95,0.71-10.44,0.81c-4.61,0.13-9.24,0.24-13.83-0.04
		c-4.53-0.27-9.05-0.92-13.55-1.62c-7.11-1.1-14.06-2.91-20.87-5.25c-10.51-3.61-20.4-8.46-29.71-14.55
		c-9.28-6.06-17.64-13.19-25.13-21.32c-7.49-8.13-13.83-17.11-19.09-26.85c-5.76-10.7-10.07-21.95-12.56-33.84
		c-1.17-5.57-2.07-11.23-2.56-16.9c-0.52-6.05-0.66-12.16-0.51-18.23c0.26-10.31,2.13-20.4,4.95-30.32
		c2.59-9.09,6.15-17.78,10.59-26.12c0.83-1.57,1.68-3.13,2.62-4.64c0.43-0.68,0.45-1.09-0.1-1.72c-4.77-5.44-8.7-11.44-11.78-18
		c-2.91-6.19-5.03-12.64-6-19.38c-0.68-4.72-1.14-9.52-1.05-14.27c0.21-11.89,3.16-23.17,8.82-33.65
		c7.37-13.66,17.92-24.15,31.69-31.4c7.78-4.1,16.03-6.79,24.72-7.88c13.87-1.73,27.33-0.1,40.21,5.58
		c7.79,3.44,14.81,8.01,21.08,13.78c6.17,5.68,11.19,12.23,15.22,19.57C222.84,247.85,223.03,248.09,223.21,248.35z M229.61,507.92
		c0.94-0.09,1.74-0.11,2.52-0.26c10.78-2.05,21.13-5.34,30.91-10.41c9.01-4.67,17.21-10.47,24.58-17.43
		c6.85-6.47,12.74-13.73,17.66-21.77c4.05-6.62,7.41-13.57,9.89-20.91c1.92-5.67,3.33-11.46,4.34-17.38
		c0.93-5.44,1.16-10.9,1.46-16.37c0.1-1.8-0.24-3.62-0.22-5.43c0.06-6.92-1.07-13.68-2.62-20.39c-2.28-9.84-5.84-19.22-10.99-27.9
		c-3.07-5.18-6.75-9.99-10.15-14.98c-0.55-0.81-1.13-0.79-1.9-0.27c-0.8,0.56-1.66,1.03-2.52,1.49c-6.28,3.36-12.92,5.54-20.02,6.43
		c-5.14,0.64-10.24,0.66-15.34-0.12c-9.53-1.46-18.15-5.1-25.86-10.9c-0.51-0.38-1.02-0.75-1.74-1.28
		C229.61,389.49,229.61,448.65,229.61,507.92z M204.01,342.05c-26.15,19.22-53.8,21.93-83.07,8.13c-17.03,29.35-20.21,71.6,2.19,108
		c11.82,19.2,28.23,33.28,48.93,42.27c10.17,4.42,20.79,7.16,31.95,8.12C204.01,452.95,204.01,397.53,204.01,342.05z M205.75,282.85
		c-0.02-26.54-22.09-49.05-49.83-48.99c-26.07,0.06-51.69,22.58-48.88,54.3c2,22.65,21.14,44.82,49.82,44.67
		C183.75,332.71,206.07,310.67,205.75,282.85z M265.53,255.81c-16.06-0.77-30.06,12.92-30.71,29.08c-0.71,17.76,13.8,33.01,32.65,32
		c14.35-0.77,30.21-13.51,28.51-33.79C294.85,269.59,282.32,255.14,265.53,255.81z"/>
	<path class="st1" d="M137.79,529.78c-27.86,4.96-55.38,9.87-83.25,14.83c11.42-18.55,22.66-36.8,34.03-55.28
		c1.51,1.87,2.87,3.59,4.28,5.28c6.26,7.52,12.9,14.66,20.32,21.06c4.92,4.25,10.04,8.22,15.97,10.96c2.36,1.09,4.89,1.82,7.34,2.71
		C136.8,529.47,137.13,529.56,137.79,529.78z"/>
	<path class="st2" d="M205.75,282.85c0.33,27.82-22,49.85-48.89,49.99c-28.68,0.14-47.82-22.02-49.82-44.67
		c-2.8-31.72,22.81-54.24,48.88-54.3C183.66,233.81,205.73,256.32,205.75,282.85z M138.48,282.62c0.31,11.73,9.1,20.33,20.03,20.64
		c11.84,0.33,21.35-8.66,21.28-20.87c-0.06-11.34-8.99-20.27-20.32-20.37C147.59,261.9,138.76,271.09,138.48,282.62z"/>
	<path class="st3" d="M265.53,255.81c16.79-0.67,29.32,13.78,30.46,27.29c1.7,20.28-14.15,33.02-28.51,33.79
		c-18.85,1.01-33.36-14.24-32.65-32C235.46,268.73,249.47,255.04,265.53,255.81z M244.93,284.79c-0.18,10.94,8.73,20.29,19.86,20.61
		c11.93,0.34,21.22-9.06,21.3-20.66c0.08-10.85-8.83-20.56-20.43-20.62C253.67,264.06,244.69,273.97,244.93,284.79z"/>
	<path class="st2" d="M153.14,280.1c0-0.18-0.01-0.35-0.01-0.53c0-1.07,0-2.14,0-3.22c0.02-0.16,0.04-0.33,0.06-0.49
		c0.07-0.1,0.14-0.21,0.21-0.31c1.08-3.74,3.5-6.14,7.23-7.24c1.78,0,3.57,0,5.35,0c0.16,0.02,0.33,0.04,0.49,0.06
		c0.1,0.07,0.21,0.14,0.31,0.21c0.09,0.01,0.18,0.02,0.27,0.03c0.36,0.18,0.71,0.35,1.07,0.53c0.17,0.09,0.35,0.19,0.52,0.28
		c0.09,0.08,0.18,0.17,0.27,0.25c0.07,0.02,0.15,0.03,0.23,0.04c0.1,0.08,0.2,0.17,0.3,0.25c0.09,0.09,0.18,0.17,0.27,0.26
		c0.09,0.09,0.18,0.17,0.27,0.26c0,0,0,0,0,0c0.09,0.08,0.18,0.17,0.27,0.25c0.18,0.18,0.36,0.36,0.54,0.54
		c0.08,0.09,0.17,0.18,0.25,0.27l0,0c0.09,0.09,0.18,0.18,0.26,0.27c0.64,1.58,1.52,3.11,1.88,4.75c1.13,5.09-2.64,10.52-7.74,11.55
		c-3.17,0.64-5.93-0.2-8.54-1.89c-0.09-0.09-0.18-0.18-0.27-0.26c0,0,0,0,0,0c-0.09-0.08-0.18-0.17-0.27-0.25
		c-0.18-0.18-0.36-0.36-0.54-0.54c-0.08-0.09-0.17-0.18-0.25-0.27c0,0,0,0,0,0c-0.09-0.09-0.17-0.18-0.26-0.27
		c-0.09-0.09-0.17-0.18-0.26-0.27c-0.08-0.1-0.17-0.2-0.25-0.3c-0.01-0.08-0.02-0.15-0.04-0.23c-0.08-0.09-0.16-0.18-0.25-0.28
		c-0.02-0.09-0.03-0.17-0.05-0.26c-0.07-0.09-0.15-0.18-0.22-0.26c0,0-0.01,0-0.01,0c-0.17-0.36-0.35-0.71-0.52-1.07
		c-0.01-0.09-0.02-0.18-0.03-0.27c-0.07-0.1-0.14-0.21-0.21-0.31c-0.02-0.16-0.04-0.33-0.06-0.49
		C153.3,280.63,153.22,280.37,153.14,280.1z"/>
	<path class="st4" d="M165.97,268.32c-1.78,0-3.57,0-5.35,0c1.07-1.18,2.47-0.72,3.75-0.68
		C164.9,267.66,165.43,268.08,165.97,268.32z"/>
	<path class="st5" d="M153.13,276.36c0,1.07,0,2.14,0,3.22C152.41,278.8,152.41,277.3,153.13,276.36z"/>
	<path class="st4" d="M168.11,269.14c-0.36-0.18-0.71-0.35-1.07-0.53C167.39,268.79,167.75,268.97,168.11,269.14z"/>
	<path class="st5" d="M153.69,281.97c0.17,0.36,0.35,0.71,0.52,1.07C154.04,282.68,153.86,282.32,153.69,281.97z"/>
	<path class="st5" d="M153.14,280.1c0.08,0.27,0.17,0.53,0.25,0.8C153.3,280.63,153.22,280.37,153.14,280.1z"/>
	<path class="st4" d="M166.77,268.59c-0.1-0.07-0.21-0.14-0.31-0.21C166.56,268.45,166.67,268.52,166.77,268.59z"/>
	<path class="st4" d="M168.9,269.67c-0.09-0.08-0.18-0.17-0.27-0.25C168.72,269.51,168.81,269.59,168.9,269.67z"/>
	<path class="st4" d="M169.43,269.96c-0.1-0.08-0.2-0.17-0.3-0.25C169.23,269.8,169.33,269.88,169.43,269.96z"/>
	<path class="st4" d="M171.3,271.83c-0.09-0.09-0.18-0.18-0.26-0.27C171.12,271.65,171.21,271.74,171.3,271.83z"/>
	<path class="st5" d="M153.39,275.55c-0.07,0.1-0.14,0.21-0.21,0.31C153.25,275.76,153.32,275.66,153.39,275.55z"/>
	<path class="st5" d="M153.45,281.39c0.07,0.1,0.14,0.21,0.21,0.31C153.59,281.6,153.52,281.5,153.45,281.39z"/>
	<path class="st5" d="M154.22,283.04c0.07,0.09,0.15,0.18,0.22,0.26C154.37,283.22,154.29,283.13,154.22,283.04z"/>
	<path class="st5" d="M154.49,283.56c0.08,0.09,0.16,0.18,0.25,0.28C154.66,283.74,154.58,283.65,154.49,283.56z"/>
	<path class="st5" d="M154.78,284.06c0.08,0.1,0.17,0.2,0.25,0.3C154.95,284.26,154.86,284.16,154.78,284.06z"/>
	<path class="st5" d="M155.29,284.63c0.09,0.09,0.17,0.18,0.26,0.27C155.47,284.81,155.38,284.72,155.29,284.63z"/>
	<path class="st5" d="M155.55,284.91c0.08,0.09,0.17,0.18,0.25,0.27C155.72,285.08,155.64,284.99,155.55,284.91z"/>
	<path class="st5" d="M156.35,285.71c0.09,0.08,0.18,0.17,0.27,0.25C156.53,285.88,156.44,285.8,156.35,285.71z"/>
	<path class="st5" d="M156.62,285.97c0.09,0.09,0.18,0.18,0.27,0.26C156.81,286.14,156.72,286.06,156.62,285.97z"/>
	<path class="st4" d="M170.24,270.74c-0.09-0.08-0.18-0.17-0.27-0.25C170.06,270.57,170.15,270.66,170.24,270.74z"/>
	<path class="st4" d="M169.97,270.48c-0.09-0.09-0.18-0.17-0.27-0.26C169.79,270.31,169.88,270.4,169.97,270.48z"/>
	<path class="st4" d="M171.04,271.56c-0.09-0.09-0.17-0.18-0.25-0.27C170.87,271.38,170.95,271.47,171.04,271.56z"/>
	<path class="st2" d="M258.81,277.22c0.04-5.86,4.85-10.09,11.54-9.92c4.42,0.12,9.09,4.31,8.97,10.12
		c-0.12,5.84-4.46,10.1-10.24,10.08C263.09,287.48,259.19,282.96,258.81,277.22z"/>
</g>
<path class="st0" d="M473.33,280.33c40.49,0,64.79,14.39,64.79,51.77c0,18.79-12.46,31.01-23.81,33.78
	c11.35,1.94,31.01,9.12,31.01,37.1c0,39.86-22.36,51.5-63.13,51.5c-30.67,0-86.6,3.05-86.6,3.05l-9.14-163.63
	C386.46,293.9,439.15,280.33,473.33,280.33z M439.28,347.61c0,0,22.08,0.28,35.99,0.28c5.77,0,8.86-4.15,8.86-11.63
	c0-8.65-4.09-15.5-13.29-15.5c-13.23,0-32.39,3.32-32.39,3.32L439.28,347.61z M441.49,412.67l35.72,0.55
	c8.58,0,11.91-6.09,11.91-13.01c0-11.35-5.14-20.21-16.27-20.21c-14.34,0-31.9,2.49-31.9,2.49L441.49,412.67z"/>
<path class="st0" d="M546.49,296.39l52.33-11.35l-1.38,131.51l58.97-3.05l-6.64,42.08l-98.01,5.81L546.49,296.39z"/>
<path class="st0" d="M655.85,301.65l51.5-4.43c0,0-0.55,59.22-0.55,102.44c0,13.3,7.69,20.76,23.81,20.76
	c16.93,0,26.02-6.08,26.02-19.38c0-43.22-0.55-102.72-0.55-102.72l55.37-5.26c0,0-4.71,74.88-4.71,118.22
	c0,35.53-32.28,51.77-72.26,51.77c-45.96,0-76.14-19.05-76.14-53.56C658.34,364.78,655.85,301.65,655.85,301.65z"/>
<path class="st0" d="M893.13,397.44l7.75-38.48l82.51,9.41c-1.94,65.62-31.55,86.94-82.23,86.94c-49.29,0-88.87-24.92-88.87-83.89
	c0-60.63,38.76-88.87,85.28-88.87c49.84,0,69.49,21.32,82.78,45.13l-47.9,25.75c-3.88-14.4-14.36-25.47-31.29-25.47
	c-16.65,0-34.89,12.18-34.89,43.47c0,27.13,16.75,39.59,34.89,39.59c13.95,0,26.03-1.38,30.77-9.97L893.13,397.44z"/>
<path class="st0" d="M1072.2,280.33c40.49,0,64.79,14.39,64.79,51.77c0,18.79-12.46,31.01-23.81,33.78
	c11.35,1.94,31.01,9.12,31.01,37.1c0,39.86-22.36,51.5-63.13,51.5c-30.67,0-86.6,3.05-86.6,3.05l-9.14-163.63
	C985.33,293.9,1038.01,280.33,1072.2,280.33z M1038.15,347.61c0,0,22.08,0.28,35.99,0.28c5.77,0,8.86-4.15,8.86-11.63
	c0-8.65-4.09-15.5-13.29-15.5c-13.23,0-32.39,3.32-32.39,3.32L1038.15,347.61z M1040.36,412.67l35.72,0.55
	c8.58,0,11.91-6.09,11.91-13.01c0-11.35-5.14-20.21-16.27-20.21c-14.34,0-31.9,2.49-31.9,2.49L1040.36,412.67z"/>
<path class="st0" d="M1146.46,301.65l51.5-4.43c0,0-0.55,59.22-0.55,102.44c0,13.3,7.69,20.76,23.81,20.76
	c16.93,0,26.03-6.08,26.03-19.38c0-43.22-0.55-102.72-0.55-102.72l55.37-5.26c0,0-4.71,74.88-4.71,118.22
	c0,35.53-32.28,51.77-72.26,51.77c-45.96,0-76.14-19.05-76.14-53.56C1148.96,364.78,1146.46,301.65,1146.46,301.65z"/>
<path class="st0" d="M1383.74,397.44l7.75-38.48l82.51,9.41c-1.94,65.62-31.55,86.94-82.23,86.94c-49.29,0-88.87-24.92-88.87-83.89
	c0-60.63,38.76-88.87,85.28-88.87c49.84,0,69.49,21.32,82.78,45.13l-47.9,25.75c-3.88-14.4-14.36-25.47-31.29-25.47
	c-16.65,0-34.89,12.18-34.89,43.47c0,27.13,16.75,39.59,34.89,39.59c13.95,0,26.03-1.38,30.77-9.97L1383.74,397.44z"/>
</svg>
