<?xml version="1.0" encoding="utf-8"?>
<!-- Generator: Adobe Illustrator 25.4.1, SVG Export Plug-In . SVG Version: 6.00 Build 0)  -->
<svg version="1.1" xmlns="http://www.w3.org/2000/svg" xmlns:xlink="http://www.w3.org/1999/xlink" x="0px" y="0px"
	 viewBox="0 0 2079 2049" style="enable-background:new 0 0 2079 2049;" xml:space="preserve">
<style type="text/css">
	.st0{display:none;}
	.st1{display:inline;}
	.st2{fill:#CDBEAD;}
	.st3{fill:#CDBFAE;}
	.st4{fill:#FEFEFE;}
	.st5{fill:#FEFEFD;}
	.st6{fill:#D6CFC8;}
	.st7{fill:#D7CFC7;}
	.st8{display:inline;fill:#CDBEAD;}
	.st9{fill:#2C3137;}
	.st10{fill:none;stroke:#EB7040;stroke-width:26;stroke-miterlimit:10;}
	.st11{fill:#EA4F1F;}
	.st12{display:inline;fill:#EA4F1F;}
	.st13{display:none;fill:#00A75F;}
	.st14{clip-path:url(#SVGID_00000137834823518520730720000016149748553602427016_);}
	.st15{clip-path:url(#SVGID_00000125590626956808177020000009163403979255763850_);}
	.st16{clip-path:url(#SVGID_00000074443929798466840670000012774932269471034541_);}
	.st17{clip-path:url(#SVGID_00000113351753232054311480000007343960463450449074_);}
	.st18{clip-path:url(#SVGID_00000012442201709435604740000005757905518558850726_);}
	.st19{clip-path:url(#SVGID_00000142138384684858973140000010882139622454901163_);}
	.st20{clip-path:url(#SVGID_00000095340570139325534120000002622682085193443234_);}
	.st21{clip-path:url(#SVGID_00000095325052875005265230000007242879694258463672_);}
	.st22{clip-path:url(#SVGID_00000004535354921024358220000017658425868118053790_);}
	.st23{clip-path:url(#SVGID_00000028294374771007269610000002386272506483124907_);}
	.st24{clip-path:url(#SVGID_00000167367004508432571110000013958725898359245712_);}
	.st25{clip-path:url(#SVGID_00000003100688597377994100000016217753236019164082_);}
	.st26{clip-path:url(#SVGID_00000060020577547787092090000017653136839545896833_);}
	.st27{clip-path:url(#SVGID_00000124843940849929572760000012906722421314004925_);}
	.st28{clip-path:url(#SVGID_00000033336096657865799580000007910860459997895839_);}
	.st29{clip-path:url(#SVGID_00000005966130105915628110000011830713438269815973_);}
	.st30{clip-path:url(#SVGID_00000068639862090634490480000016541396738812562835_);}
	.st31{clip-path:url(#SVGID_00000125593245335768497300000016163128134959449529_);}
	.st32{clip-path:url(#SVGID_00000052097529459660036870000015068829972576308894_);}
	.st33{clip-path:url(#SVGID_00000120542081035304234360000017427070321130251919_);}
	.st34{clip-path:url(#SVGID_00000036967066618932502300000017922023317903877781_);}
	.st35{clip-path:url(#SVGID_00000134958319674949530210000009166783262897181611_);}
	.st36{clip-path:url(#SVGID_00000109720956203607340110000017952386903295349643_);}
	.st37{clip-path:url(#SVGID_00000102524615487688297000000005518561125455308948_);}
	.st38{clip-path:url(#SVGID_00000030447400094135326130000004214791987000515719_);}
	.st39{clip-path:url(#SVGID_00000112630866166409456980000014184369855766850944_);}
	.st40{clip-path:url(#SVGID_00000173862440896529578380000005523676220990351232_);}
	.st41{clip-path:url(#SVGID_00000067955050377148048650000000280727952166447256_);}
	.st42{clip-path:url(#SVGID_00000090993697249247108610000003491989314097284531_);}
	.st43{opacity:0.5;clip-path:url(#SVGID_00000065754431977199443420000010092597184616948885_);}
	.st44{fill:#FFFFFF;}
	.st45{fill:#FDFDFE;}
	.st46{fill:#FCFCFC;}
	.st47{fill:#FAFAFB;}
	.st48{fill:#F8F9F9;}
	.st49{fill:#F7F7F8;}
	.st50{fill:#F5F5F6;}
	.st51{fill:#F3F4F5;}
	.st52{fill:#F2F2F3;}
	.st53{fill:#F0F1F2;}
	.st54{fill:#EEEFF0;}
	.st55{fill:#ECEDEF;}
	.st56{fill:#EBECED;}
	.st57{fill:#E9EAEC;}
	.st58{fill:#E7E9EA;}
	.st59{fill:#E6E7E9;}
	.st60{fill:#E4E5E7;}
	.st61{fill:#E2E4E6;}
	.st62{fill:#E1E2E4;}
	.st63{fill:#DFE1E3;}
	.st64{fill:#DDDFE1;}
	.st65{fill:#DCDEE0;}
	.st66{fill:#DADCDE;}
	.st67{fill:#D8DADD;}
	.st68{fill:#D7D9DB;}
	.st69{fill:#D5D7DA;}
	.st70{fill:#D3D6D8;}
	.st71{fill:#D2D4D7;}
	.st72{fill:#D0D2D5;}
	.st73{fill:#CED1D4;}
	.st74{fill:#CDCFD2;}
	.st75{fill:#CBCED1;}
	.st76{fill:#C9CCCF;}
	.st77{fill:#C7CACE;}
	.st78{fill:#C6C9CD;}
	.st79{fill:#C4C7CB;}
	.st80{fill:#C2C6CA;}
	.st81{fill:#C1C4C8;}
	.st82{fill:#BFC2C7;}
	.st83{fill:#BDC1C5;}
	.st84{fill:#BCBFC4;}
	.st85{fill:#BABEC2;}
	.st86{fill:#B8BCC1;}
	.st87{fill:#B7BABF;}
	.st88{fill:#B5B9BE;}
	.st89{fill:#B3B7BC;}
	.st90{fill:#B2B6BB;}
	.st91{fill:#B0B4B9;}
	.st92{fill:#AEB2B8;}
	.st93{fill:#ADB1B6;}
	.st94{fill:#ABAFB5;}
	.st95{fill:#A9AEB3;}
	.st96{fill:#A7ACB2;}
	.st97{fill:#A6ABB0;}
	.st98{fill:#A4A9AF;}
	.st99{fill:#A2A7AD;}
	.st100{fill:#A1A6AC;}
	.st101{fill:#9FA4AA;}
	.st102{fill:#9DA3A9;}
	.st103{fill:#9CA1A7;}
	.st104{fill:#9A9FA6;}
	.st105{fill:#989EA4;}
	.st106{fill:#979CA3;}
	.st107{fill:#959BA1;}
	.st108{fill:#9399A0;}
	.st109{fill:#92979E;}
	.st110{fill:#90969D;}
	.st111{fill:#8E949B;}
	.st112{fill:#8D939A;}
	.st113{fill:#8B9199;}
	.st114{fill:#898F97;}
	.st115{fill:#878E96;}
	.st116{fill:#868C94;}
	.st117{fill:#848B93;}
	.st118{fill:#828991;}
	.st119{fill:#818790;}
	.st120{fill:#7F868E;}
	.st121{fill:#7D848D;}
	.st122{fill:#7C838B;}
	.st123{fill:#7A818A;}
	.st124{fill:#787F88;}
	.st125{fill:#777E87;}
	.st126{fill:#757C85;}
	.st127{fill:#737B84;}
	.st128{fill:#727982;}
	.st129{fill:#707881;}
	.st130{fill:#6E767F;}
	.st131{fill:#6D747E;}
	.st132{fill:#6B737C;}
	.st133{fill:#69717B;}
	.st134{fill:#687079;}
	.st135{fill:#666E78;}
	.st136{fill:#646C76;}
	.st137{fill:#626B75;}
	.st138{fill:#616973;}
	.st139{fill:#5F6872;}
	.st140{fill:#5D6670;}
	.st141{fill:#5C646F;}
	.st142{fill:#5A636D;}
	.st143{fill:#58616C;}
	.st144{fill:#57606A;}
	.st145{fill:#555E69;}
	.st146{fill:url(#SVGID_00000012434271506599573690000003185708823291325600_);}
	.st147{fill:url(#SVGID_00000139260058943780819700000006261157482259424420_);}
	.st148{fill:#CC0E21;}
	.st149{fill:#090909;}
	.st150{fill:#0A0A0A;}
</style>
<g id="Layer_1" class="st0">
	<g id="Layer_1_00000009579754738597190080000017822521786627088817_">
		<g class="st1">
			<path class="st2" d="M47.2,248.4c2.6-2.3,4.9-4.6,7.5-6.6c6.7-5.3,14.3-8.9,22.7-10.7c4.6-1,9.2-1.4,13.9-1.3
				c10,0.3,19.3,3,27.8,8.3c9.8,6.1,17.1,14.3,21.9,24.8c2.7,5.9,4.3,12.1,4.8,18.6c0.7,8.5-0.4,16.6-3.3,24.6
				c-1.1,2.8-2.5,5.5-3.8,8.2c-0.4,0.8-0.4,1.2,0.1,1.9c7.2,8.4,13.4,17.6,18.3,27.6c5.6,11.4,9.6,23.4,11.6,36
				c0.6,3.7,1.1,7.4,1.3,11.2c0.3,6.4,0.7,12.8,0.5,19.1c-0.4,9.5-2,18.8-4.6,27.9c-2.6,9.1-6,17.9-10.5,26.3
				c-4.5,8.5-9.9,16.5-16.2,23.9c-8.7,10.1-18.5,18.9-29.8,26c-12,7.6-24.8,13.3-38.6,16.7c-5.6,1.4-11.3,2.3-17,3.2
				c-3.4,0.5-7,0.7-10.4,0.8c-4.6,0.1-9.2,0.2-13.8,0c-4.5-0.3-9.1-0.9-13.6-1.6c-7.1-1.1-14.1-2.9-20.9-5.2
				c-10.5-3.6-20.4-8.5-29.7-14.5c-9.3-6.1-17.6-13.2-25.1-21.3s-13.8-17.1-19.1-26.9c-5.8-10.7-10.1-22-12.6-33.8
				c-1.2-5.6-2.1-11.2-2.6-16.9c-0.5-6-0.7-12.2-0.5-18.2c0.3-10.3,2.1-20.4,4.9-30.3c2.6-9.1,6.2-17.8,10.6-26.1
				c0.8-1.6,1.7-3.1,2.6-4.6c0.4-0.7,0.4-1.1-0.1-1.7c-4.8-5.4-8.7-11.4-11.8-18c-2.9-6.2-5-12.6-6-19.4c-0.7-4.7-1.1-9.5-1.1-14.3
				c0.2-11.9,3.2-23.2,8.8-33.6c7.4-13.7,17.9-24.1,31.7-31.4c7.8-4.1,16-6.8,24.7-7.9c13.9-1.7,27.3-0.1,40.2,5.6
				c7.8,3.4,14.8,8,21.1,13.8c6.2,5.7,11.2,12.2,15.2,19.6C46.8,247.9,47,248.1,47.2,248.4z M53.6,507.9c0.9-0.1,1.7-0.1,2.5-0.3
				c10.8-2,21.1-5.3,30.9-10.4c9-4.7,17.2-10.5,24.6-17.4c6.8-6.5,12.7-13.7,17.7-21.8c4.1-6.6,7.4-13.6,9.9-20.9
				c1.9-5.7,3.3-11.5,4.3-17.4c0.9-5.4,1.2-10.9,1.5-16.4c0.1-1.8-0.2-3.6-0.2-5.4c0.1-6.9-1.1-13.7-2.6-20.4
				c-2.3-9.8-5.8-19.2-11-27.9c-3.1-5.2-6.8-10-10.2-15c-0.6-0.8-1.1-0.8-1.9-0.3c-0.8,0.6-1.7,1-2.5,1.5c-6.3,3.4-12.9,5.5-20,6.4
				c-5.1,0.6-10.2,0.7-15.3-0.1c-9.5-1.5-18.2-5.1-25.9-10.9c-0.5-0.4-1-0.8-1.7-1.3C53.6,389.5,53.6,448.6,53.6,507.9z M28,342
				c-26.1,19.2-53.8,21.9-83.1,8.1c-17,29.4-20.2,71.6,2.2,108c11.8,19.2,28.2,33.3,48.9,42.3c10.2,4.4,20.8,7.2,32,8.1
				C28,453,28,397.5,28,342z M29.8,282.9c0-26.5-22.1-49.1-49.8-49c-26.1,0.1-51.7,22.6-48.9,54.3c2,22.6,21.1,44.8,49.8,44.7
				C7.8,332.7,30.1,310.7,29.8,282.9z M89.5,255.8c-16.1-0.8-30.1,12.9-30.7,29.1c-0.7,17.8,13.8,33,32.7,32
				c14.3-0.8,30.2-13.5,28.5-33.8C118.8,269.6,106.3,255.1,89.5,255.8z"/>
			<path class="st3" d="M-38.2,529.8c-27.9,5-55.4,9.9-83.2,14.8c11.4-18.5,22.7-36.8,34-55.3c1.5,1.9,2.9,3.6,4.3,5.3
				c6.3,7.5,12.9,14.7,20.3,21.1c4.9,4.2,10,8.2,16,11c2.4,1.1,4.9,1.8,7.3,2.7C-39.2,529.5-38.9,529.6-38.2,529.8z"/>
			<path class="st4" d="M29.8,282.9c0.3,27.8-22,49.9-48.9,50c-28.7,0.1-47.8-22-49.8-44.7c-2.8-31.7,22.8-54.2,48.9-54.3
				C7.7,233.8,29.7,256.3,29.8,282.9z M-37.5,282.6c0.3,11.7,9.1,20.3,20,20.6c11.8,0.3,21.4-8.7,21.3-20.9
				c-0.1-11.3-9-20.3-20.3-20.4C-28.4,261.9-37.2,271.1-37.5,282.6z"/>
			<path class="st5" d="M89.5,255.8c16.8-0.7,29.3,13.8,30.5,27.3c1.7,20.3-14.2,33-28.5,33.8c-18.8,1-33.4-14.2-32.7-32
				C59.5,268.7,73.5,255,89.5,255.8z M68.9,284.8c-0.2,10.9,8.7,20.3,19.9,20.6c11.9,0.3,21.2-9.1,21.3-20.7
				c0.1-10.9-8.8-20.6-20.4-20.6C77.7,264.1,68.7,274,68.9,284.8z"/>
			<path class="st4" d="M-22.9,280.1c0-0.2,0-0.4,0-0.5c0-1.1,0-2.1,0-3.2c0-0.2,0-0.3,0.1-0.5c0.1-0.1,0.1-0.2,0.2-0.3
				c1.1-3.7,3.5-6.1,7.2-7.2c1.8,0,3.6,0,5.4,0c0.2,0,0.3,0,0.5,0.1c0.1,0.1,0.2,0.1,0.3,0.2c0.1,0,0.2,0,0.3,0
				c0.4,0.2,0.7,0.4,1.1,0.5c0.2,0.1,0.3,0.2,0.5,0.3c0.1,0.1,0.2,0.2,0.3,0.2c0.1,0,0.2,0,0.2,0c0.1,0.1,0.2,0.2,0.3,0.2
				c0.1,0.1,0.2,0.2,0.3,0.3s0.2,0.2,0.3,0.3l0,0c0.1,0.1,0.2,0.2,0.3,0.2c0.2,0.2,0.4,0.4,0.5,0.5c0.1,0.1,0.2,0.2,0.2,0.3l0,0
				c0.1,0.1,0.2,0.2,0.3,0.3c0.6,1.6,1.5,3.1,1.9,4.8c1.1,5.1-2.6,10.5-7.7,11.5c-3.2,0.6-5.9-0.2-8.5-1.9c-0.1-0.1-0.2-0.2-0.3-0.3
				l0,0c-0.1-0.1-0.2-0.2-0.3-0.2c-0.2-0.2-0.4-0.4-0.5-0.5c-0.1-0.1-0.2-0.2-0.2-0.3l0,0c-0.1-0.1-0.2-0.2-0.3-0.3
				s-0.2-0.2-0.3-0.3c-0.1-0.1-0.2-0.2-0.2-0.3c0-0.1,0-0.1,0-0.2c-0.1-0.1-0.2-0.2-0.2-0.3c0-0.1,0-0.2,0-0.3
				c-0.1-0.1-0.1-0.2-0.2-0.3h0c-0.2-0.4-0.4-0.7-0.5-1.1c0-0.1,0-0.2,0-0.3c-0.1-0.1-0.1-0.2-0.2-0.3c0-0.2,0-0.3-0.1-0.5
				C-22.7,280.6-22.8,280.4-22.9,280.1z"/>
			<path class="st6" d="M-10,268.3c-1.8,0-3.6,0-5.3,0c1.1-1.2,2.5-0.7,3.8-0.7C-11.1,267.7-10.6,268.1-10,268.3z"/>
			<path class="st7" d="M-22.9,276.4c0,1.1,0,2.1,0,3.2C-23.6,278.8-23.6,277.3-22.9,276.4z"/>
			<path class="st6" d="M-7.9,269.1c-0.4-0.2-0.7-0.4-1.1-0.5C-8.6,268.8-8.2,269-7.9,269.1z"/>
			<path class="st7" d="M-22.3,282c0.2,0.4,0.4,0.7,0.5,1.1C-22,282.7-22.1,282.3-22.3,282z"/>
			<path class="st7" d="M-22.9,280.1c0.1,0.3,0.2,0.5,0.2,0.8C-22.7,280.6-22.8,280.4-22.9,280.1z"/>
			<path class="st6" d="M-9.2,268.6c-0.1-0.1-0.2-0.1-0.3-0.2C-9.4,268.5-9.3,268.5-9.2,268.6z"/>
			<path class="st6" d="M-7.1,269.7c-0.1-0.1-0.2-0.2-0.3-0.2C-7.3,269.5-7.2,269.6-7.1,269.7z"/>
			<path class="st6" d="M-6.6,270c-0.1-0.1-0.2-0.2-0.3-0.2C-6.8,269.8-6.7,269.9-6.6,270z"/>
			<path class="st6" d="M-4.7,271.8c-0.1-0.1-0.2-0.2-0.3-0.3C-4.9,271.6-4.8,271.7-4.7,271.8z"/>
			<path class="st7" d="M-22.6,275.5c-0.1,0.1-0.1,0.2-0.2,0.3C-22.8,275.8-22.7,275.7-22.6,275.5z"/>
			<path class="st7" d="M-22.5,281.4c0.1,0.1,0.1,0.2,0.2,0.3C-22.4,281.6-22.5,281.5-22.5,281.4z"/>
			<path class="st7" d="M-21.8,283c0.1,0.1,0.1,0.2,0.2,0.3C-21.6,283.2-21.7,283.1-21.8,283z"/>
			<path class="st7" d="M-21.5,283.6c0.1,0.1,0.2,0.2,0.2,0.3C-21.3,283.7-21.4,283.6-21.5,283.6z"/>
			<path class="st7" d="M-21.2,284.1c0.1,0.1,0.2,0.2,0.2,0.3C-21,284.3-21.1,284.2-21.2,284.1z"/>
			<path class="st7" d="M-20.7,284.6c0.1,0.1,0.2,0.2,0.3,0.3C-20.5,284.8-20.6,284.7-20.7,284.6z"/>
			<path class="st7" d="M-20.5,284.9c0.1,0.1,0.2,0.2,0.2,0.3C-20.3,285.1-20.4,285-20.5,284.9z"/>
			<path class="st7" d="M-19.6,285.7c0.1,0.1,0.2,0.2,0.3,0.2C-19.5,285.9-19.6,285.8-19.6,285.7z"/>
			<path class="st7" d="M-19.4,286c0.1,0.1,0.2,0.2,0.3,0.3C-19.2,286.1-19.3,286.1-19.4,286z"/>
			<path class="st6" d="M-5.8,270.7c-0.1-0.1-0.2-0.2-0.3-0.2C-5.9,270.6-5.8,270.7-5.8,270.7z"/>
			<path class="st6" d="M-6,270.5c-0.1-0.1-0.2-0.2-0.3-0.3C-6.2,270.3-6.1,270.4-6,270.5z"/>
			<path class="st6" d="M-5,271.6c-0.1-0.1-0.2-0.2-0.2-0.3C-5.1,271.4-5.1,271.5-5,271.6z"/>
			<path class="st4" d="M82.8,277.2c0-5.9,4.8-10.1,11.5-9.9c4.4,0.1,9.1,4.3,9,10.1c-0.1,5.8-4.5,10.1-10.2,10.1
				C87.1,287.5,83.2,283,82.8,277.2z"/>
		</g>
		<path class="st8" d="M297.3,280.3c40.5,0,64.8,14.4,64.8,51.8c0,18.8-12.5,31-23.8,33.8c11.4,1.9,31,9.1,31,37.1
			c0,39.9-22.4,51.5-63.1,51.5c-30.7,0-86.6,3-86.6,3l-9.1-163.6C210.5,293.9,263.1,280.3,297.3,280.3z M263.3,347.6
			c0,0,22.1,0.3,36,0.3c5.8,0,8.9-4.1,8.9-11.6c0-8.6-4.1-15.5-13.3-15.5c-13.2,0-32.4,3.3-32.4,3.3L263.3,347.6z M265.5,412.7
			l35.7,0.5c8.6,0,11.9-6.1,11.9-13c0-11.4-5.1-20.2-16.3-20.2c-14.3,0-31.9,2.5-31.9,2.5L265.5,412.7z"/>
		<path class="st8" d="M370.5,296.4l52.3-11.4l-1.4,131.5l59-3l-6.6,42.1l-98,5.8L370.5,296.4z"/>
		<path class="st8" d="M479.9,301.6l51.5-4.4c0,0-0.5,59.2-0.5,102.4c0,13.3,7.7,20.8,23.8,20.8c16.9,0,26-6.1,26-19.4
			c0-43.2-0.5-102.7-0.5-102.7l55.4-5.3c0,0-4.7,74.9-4.7,118.2c0,35.5-32.3,51.8-72.3,51.8c-46,0-76.1-19-76.1-53.6
			C482.3,364.8,479.9,301.6,479.9,301.6z"/>
		<path class="st8" d="M717.1,397.4l7.8-38.5l82.5,9.4c-1.9,65.6-31.5,86.9-82.2,86.9c-49.3,0-88.9-24.9-88.9-83.9
			c0-60.6,38.8-88.9,85.3-88.9c49.8,0,69.5,21.3,82.8,45.1l-47.9,25.8c-3.9-14.4-14.4-25.5-31.3-25.5c-16.7,0-34.9,12.2-34.9,43.5
			c0,27.1,16.8,39.6,34.9,39.6c14,0,26-1.4,30.8-10L717.1,397.4z"/>
		<path class="st8" d="M896.2,280.3c40.5,0,64.8,14.4,64.8,51.8c0,18.8-12.5,31-23.8,33.8c11.3,1.9,31,9.1,31,37.1
			c0,39.9-22.4,51.5-63.1,51.5c-30.7,0-86.6,3-86.6,3l-9.1-163.6C809.3,293.9,862,280.3,896.2,280.3z M862.2,347.6
			c0,0,22.1,0.3,36,0.3c5.8,0,8.9-4.1,8.9-11.6c0-8.6-4.1-15.5-13.3-15.5c-13.2,0-32.4,3.3-32.4,3.3L862.2,347.6z M864.4,412.7
			l35.7,0.5c8.6,0,11.9-6.1,11.9-13c0-11.4-5.1-20.2-16.3-20.2c-14.3,0-31.9,2.5-31.9,2.5L864.4,412.7z"/>
		<path class="st8" d="M970.5,301.6l51.5-4.4c0,0-0.5,59.2-0.5,102.4c0,13.3,7.7,20.8,23.8,20.8c16.9,0,26-6.1,26-19.4
			c0-43.2-0.6-102.7-0.6-102.7l55.4-5.3c0,0-4.7,74.9-4.7,118.2c0,35.5-32.3,51.8-72.3,51.8c-46,0-76.1-19-76.1-53.6
			C973,364.8,970.5,301.6,970.5,301.6z"/>
		<path class="st8" d="M1207.7,397.4l7.8-38.5l82.5,9.4c-1.9,65.6-31.6,86.9-82.2,86.9c-49.3,0-88.9-24.9-88.9-83.9
			c0-60.6,38.8-88.9,85.3-88.9c49.8,0,69.5,21.3,82.8,45.1l-47.9,25.8c-3.9-14.4-14.4-25.5-31.3-25.5c-16.7,0-34.9,12.2-34.9,43.5
			c0,27.1,16.8,39.6,34.9,39.6c13.9,0,26-1.4,30.8-10L1207.7,397.4z"/>
	</g>
	<g id="Layer_2_00000162351307733043044800000018252333151321216433_" class="st1">
		<g>
			<circle class="st9" cx="1032" cy="1024.5" r="983.9"/>
			<g>
				<circle class="st10" cx="1032" cy="1024.5" r="983.9"/>
				<g>
					<path class="st2" d="M1107.1,592.9c8.7-7.8,16.6-15.6,25.3-22.5c22.7-18.1,48.4-29.9,76.7-36.2c15.5-3.5,31.1-4.7,46.8-4.3
						c33.8,0.9,65.3,10.3,94.2,28.1c33.1,20.5,57.9,48.4,74.1,83.8c9.1,19.9,14.5,40.8,16.4,62.8c2.4,28.6-1.3,56.2-11.2,83
						c-3.5,9.5-8.3,18.6-12.9,27.8c-1.3,2.5-1.5,4.1,0.5,6.3c24.5,28.5,45.2,59.5,61.7,93.3c19,38.6,32.5,79,39.4,121.5
						c2,12.5,3.7,25.1,4.3,37.8c1.1,21.6,2.4,43.2,1.6,64.7c-1.2,31.9-6.8,63.4-15.4,94.2c-8.6,30.9-20.4,60.6-35.4,88.9
						c-15.3,28.9-33.4,55.9-54.7,80.8c-29.3,34.2-62.7,63.8-100.7,88.1c-40.4,25.8-83.8,45.1-130.4,56.4
						c-18.9,4.6-38.1,7.7-57.3,10.6c-11.6,1.8-23.5,2.4-35.3,2.8c-15.6,0.4-31.2,0.8-46.8-0.1c-15.3-0.9-30.6-3.1-45.8-5.5
						c-24-3.7-47.5-9.8-70.5-17.7c-35.5-12.2-69-28.6-100.5-49.2c-31.4-20.5-59.7-44.6-85-72.1c-25.3-27.5-46.8-57.8-64.5-90.8
						c-19.5-36.2-34-74.2-42.5-114.4c-4-18.8-7-38-8.7-57.1c-1.8-20.4-2.2-41.1-1.7-61.6c0.9-34.8,7.2-69,16.7-102.5
						c8.8-30.7,20.8-60.1,35.8-88.3c2.8-5.3,5.7-10.6,8.9-15.7c1.4-2.3,1.5-3.7-0.3-5.8c-16.1-18.4-29.4-38.7-39.8-60.8
						c-9.8-20.9-17-42.7-20.3-65.5c-2.3-15.9-3.8-32.2-3.6-48.3c0.7-40.2,10.7-78.3,29.8-113.8c24.9-46.2,60.6-81.7,107.2-106.2
						c26.3-13.9,54.2-23,83.6-26.6c46.9-5.9,92.4-0.4,136,18.9c26.3,11.6,50.1,27.1,71.3,46.6c20.9,19.2,37.8,41.4,51.5,66.2
						C1105.8,591.2,1106.5,592,1107.1,592.9z M1128.7,1470.5c3.2-0.3,5.9-0.4,8.5-0.9c36.4-6.9,71.4-18.1,104.5-35.2
						c30.5-15.8,58.2-35.4,83.1-58.9c23.2-21.9,43.1-46.4,59.7-73.6c13.7-22.4,25-45.9,33.4-70.7c6.5-19.2,11.2-38.7,14.7-58.8
						c3.2-18.4,3.9-36.8,4.9-55.3c0.3-6.1-0.8-12.2-0.7-18.4c0.2-23.4-3.6-46.3-8.9-68.9c-7.7-33.3-19.7-65-37.2-94.3
						c-10.4-17.5-22.8-33.8-34.3-50.6c-1.9-2.7-3.8-2.7-6.4-0.9c-2.7,1.9-5.6,3.5-8.5,5c-21.2,11.4-43.7,18.7-67.7,21.7
						c-17.4,2.2-34.6,2.2-51.9-0.4c-32.2-4.9-61.4-17.2-87.4-36.8c-1.7-1.3-3.5-2.5-5.9-4.3
						C1128.7,1070.1,1128.7,1270.1,1128.7,1470.5z M1042.2,909.7c-88.4,65-181.9,74.2-280.9,27.5c-57.6,99.2-68.3,242.1,7.4,365.2
						c40,64.9,95.5,112.5,165.4,142.9c34.4,14.9,70.3,24.2,108,27.5C1042.2,1284.7,1042.2,1097.3,1042.2,909.7z M1048.1,709.6
						c-0.1-89.7-74.7-165.8-168.5-165.6c-88.1,0.2-174.8,76.3-165.3,183.6c6.8,76.6,71.5,151.5,168.4,151
						C973.7,878.1,1049.2,803.6,1048.1,709.6z M1250.2,618.2c-54.3-2.6-101.7,43.7-103.8,98.3c-2.4,60,46.7,111.6,110.4,108.2
						c48.5-2.6,102.1-45.7,96.4-114.2C1349.3,664.7,1306.9,615.9,1250.2,618.2z"/>
					<path class="st3" d="M818.3,1544.4c-94.2,16.8-187.2,33.4-281.5,50.2c38.6-62.7,76.6-124.4,115-186.9
						c5.1,6.3,9.7,12.1,14.5,17.8c21.2,25.4,43.6,49.6,68.7,71.2c16.6,14.4,33.9,27.8,54,37.1c8,3.7,16.5,6.2,24.8,9.2
						C815,1543.4,816.1,1543.7,818.3,1544.4z"/>
					<path class="st4" d="M1048.1,709.6c1.1,94-74.4,168.5-165.3,169c-97,0.5-161.7-74.4-168.4-151
						c-9.5-107.3,77.1-183.4,165.3-183.6C973.4,543.7,1048,619.8,1048.1,709.6z M820.6,708.8c1.1,39.6,30.8,68.7,67.7,69.8
						c40,1.1,72.2-29.3,71.9-70.6c-0.2-38.3-30.4-68.5-68.7-68.9C851.4,638.7,821.6,669.8,820.6,708.8z"/>
					<path class="st5" d="M1250.2,618.2c56.8-2.3,99.1,46.6,103,92.3c5.8,68.6-47.8,111.6-96.4,114.2
						c-63.7,3.4-112.8-48.2-110.4-108.2C1148.5,661.8,1195.9,615.5,1250.2,618.2z M1180.5,716.1c-0.6,37,29.5,68.6,67.2,69.7
						c40.3,1.2,71.8-30.6,72-69.9c0.3-36.7-29.8-69.5-69.1-69.7C1210.1,646,1179.7,679.5,1180.5,716.1z"/>
					<path class="st4" d="M870.2,700.3c0-0.6,0-1.2,0-1.8c0-3.6,0-7.2,0-10.9c0.1-0.5,0.1-1.1,0.2-1.7c0.2-0.3,0.5-0.7,0.7-1
						c3.6-12.7,11.8-20.8,24.4-24.5c6,0,12.1,0,18.1,0c0.5,0.1,1.1,0.1,1.7,0.2c0.3,0.2,0.7,0.5,1,0.7c0.3,0,0.6,0.1,0.9,0.1
						c1.2,0.6,2.4,1.2,3.6,1.8c0.6,0.3,1.2,0.6,1.8,1c0.3,0.3,0.6,0.6,0.9,0.8c0.2,0.1,0.5,0.1,0.8,0.1c0.3,0.3,0.7,0.6,1,0.8
						c0.3,0.3,0.6,0.6,0.9,0.9c0.3,0.3,0.6,0.6,0.9,0.9l0,0c0.3,0.3,0.6,0.6,0.9,0.9c0.6,0.6,1.2,1.2,1.8,1.8
						c0.3,0.3,0.6,0.6,0.9,0.9l0,0c0.3,0.3,0.6,0.6,0.9,0.9c2.2,5.3,5.1,10.5,6.4,16c3.8,17.2-8.9,35.6-26.2,39
						c-10.7,2.2-20.1-0.7-28.9-6.4c-0.3-0.3-0.6-0.6-0.9-0.9l0,0c-0.3-0.3-0.6-0.6-0.9-0.9c-0.6-0.6-1.2-1.2-1.8-1.8
						c-0.3-0.3-0.6-0.6-0.9-0.9l0,0c-0.3-0.3-0.6-0.6-0.9-0.9c-0.3-0.3-0.6-0.6-0.9-0.9c-0.3-0.3-0.6-0.7-0.8-1
						c0-0.3-0.1-0.5-0.1-0.8c-0.3-0.3-0.6-0.6-0.8-0.9c0-0.3-0.1-0.6-0.2-0.9c-0.2-0.3-0.5-0.6-0.8-0.9l0,0
						c-0.6-1.2-1.2-2.4-1.8-3.6c0-0.3-0.1-0.6-0.1-0.9c-0.2-0.3-0.5-0.7-0.7-1c-0.1-0.5-0.1-1.1-0.2-1.7
						C870.7,702.1,870.5,701.2,870.2,700.3z"/>
					<path class="st6" d="M913.6,660.4c-6,0-12.1,0-18.1,0c3.6-4,8.3-2.4,12.7-2.3C910,658.2,911.8,659.6,913.6,660.4z"/>
					<path class="st7" d="M870.2,687.6c0,3.6,0,7.2,0,10.9C867.7,695.9,867.7,690.8,870.2,687.6z"/>
					<path class="st6" d="M920.8,663.2c-1.2-0.6-2.4-1.2-3.6-1.8C918.4,662,919.6,662.6,920.8,663.2z"/>
					<path class="st7" d="M872,706.6c0.6,1.2,1.2,2.4,1.8,3.6C873.2,709,872.6,707.8,872,706.6z"/>
					<path class="st7" d="M870.2,700.3c0.3,0.9,0.6,1.8,0.8,2.7C870.7,702.1,870.5,701.2,870.2,700.3z"/>
					<path class="st6" d="M916.3,661.3c-0.3-0.2-0.7-0.5-1-0.7C915.6,660.9,915.9,661.1,916.3,661.3z"/>
					<path class="st6" d="M923.5,665c-0.3-0.3-0.6-0.6-0.9-0.8C922.9,664.5,923.2,664.7,923.5,665z"/>
					<path class="st6" d="M925.3,666c-0.3-0.3-0.7-0.6-1-0.8C924.6,665.4,924.9,665.7,925.3,666z"/>
					<path class="st6" d="M931.6,672.3c-0.3-0.3-0.6-0.6-0.9-0.9C931,671.7,931.3,672,931.6,672.3z"/>
					<path class="st7" d="M871,684.9c-0.2,0.3-0.5,0.7-0.7,1C870.6,685.6,870.8,685.2,871,684.9z"/>
					<path class="st7" d="M871.2,704.6c0.2,0.3,0.5,0.7,0.7,1C871.7,705.3,871.5,705,871.2,704.6z"/>
					<path class="st7" d="M873.8,710.2c0.2,0.3,0.5,0.6,0.8,0.9C874.3,710.8,874.1,710.5,873.8,710.2z"/>
					<path class="st7" d="M874.8,712c0.3,0.3,0.6,0.6,0.8,0.9C875.3,712.6,875,712.3,874.8,712z"/>
					<path class="st7" d="M875.7,713.7c0.3,0.3,0.6,0.7,0.8,1C876.3,714.3,876,714,875.7,713.7z"/>
					<path class="st7" d="M877.5,715.6c0.3,0.3,0.6,0.6,0.9,0.9C878,716.2,877.8,715.9,877.5,715.6z"/>
					<path class="st7" d="M878.3,716.5c0.3,0.3,0.6,0.6,0.9,0.9C878.9,717.1,878.6,716.8,878.3,716.5z"/>
					<path class="st7" d="M881,719.2c0.3,0.3,0.6,0.6,0.9,0.9C881.7,719.8,881.4,719.5,881,719.2z"/>
					<path class="st7" d="M882,720.1c0.3,0.3,0.6,0.6,0.9,0.9C882.6,720.7,882.3,720.4,882,720.1z"/>
					<path class="st6" d="M928,668.6c-0.3-0.3-0.6-0.6-0.9-0.9C927.4,668,927.7,668.3,928,668.6z"/>
					<path class="st6" d="M927.1,667.8c-0.3-0.3-0.6-0.6-0.9-0.9C926.5,667.2,926.8,667.5,927.1,667.8z"/>
					<path class="st6" d="M930.7,671.4c-0.3-0.3-0.6-0.6-0.9-0.9C930.1,670.8,930.4,671.1,930.7,671.4z"/>
					<path class="st4" d="M1227.5,690.5c0.2-19.8,16.4-34.1,39-33.5c14.9,0.4,30.8,14.6,30.3,34.2c-0.4,19.8-15.1,34.2-34.6,34.1
						C1241.9,725.2,1228.7,709.9,1227.5,690.5z"/>
				</g>
			</g>
		</g>
		
			<image style="display:none;overflow:visible;enable-background:new    ;" width="330" height="178" xlink:href="7CA09676.jpeg"  transform="matrix(1 0 0 1 59 -282)">
		</image>
	</g>
</g>
<g id="Layer_3">
	<g id="Layer_2_00000162340048093243568340000013943907771229425329_">
		<g>
			<circle class="st11" cx="1032" cy="1024.5" r="983.9"/>
			<g class="st0">
				<circle class="st12" cx="1032" cy="1024.5" r="983.9"/>
				<g class="st1">
					<path class="st11" d="M1107.1,592.9c8.7-7.8,16.6-15.6,25.3-22.5c22.7-18.1,48.4-29.9,76.7-36.2c15.5-3.5,31.1-4.7,46.8-4.3
						c33.8,0.9,65.3,10.3,94.2,28.1c33.1,20.5,57.9,48.4,74.1,83.8c9.1,19.9,14.5,40.8,16.4,62.8c2.4,28.6-1.3,56.2-11.2,83
						c-3.5,9.5-8.3,18.6-12.9,27.8c-1.3,2.5-1.5,4.1,0.5,6.3c24.5,28.5,45.2,59.5,61.7,93.3c19,38.6,32.5,79,39.4,121.5
						c2,12.5,3.7,25.1,4.3,37.8c1.1,21.6,2.4,43.2,1.6,64.7c-1.2,31.9-6.8,63.4-15.4,94.2c-8.6,30.9-20.4,60.6-35.4,88.9
						c-15.3,28.9-33.4,55.9-54.7,80.8c-29.3,34.2-62.7,63.8-100.7,88.1c-40.4,25.8-83.8,45.1-130.4,56.4
						c-18.9,4.6-38.1,7.7-57.3,10.6c-11.6,1.8-23.5,2.4-35.3,2.8c-15.6,0.4-31.2,0.8-46.8-0.1c-15.3-0.9-30.6-3.1-45.8-5.5
						c-24-3.7-47.5-9.8-70.5-17.7c-35.5-12.2-69-28.6-100.5-49.2c-31.4-20.5-59.7-44.6-85-72.1c-25.3-27.5-46.8-57.8-64.5-90.8
						c-19.5-36.2-34-74.2-42.5-114.4c-4-18.8-7-38-8.7-57.1c-1.8-20.4-2.2-41.1-1.7-61.6c0.9-34.8,7.2-69,16.7-102.5
						c8.8-30.7,20.8-60.1,35.8-88.3c2.8-5.3,5.7-10.6,8.9-15.7c1.4-2.3,1.5-3.7-0.3-5.8c-16.1-18.4-29.4-38.7-39.8-60.8
						c-9.8-20.9-17-42.7-20.3-65.5c-2.3-15.9-3.8-32.2-3.6-48.3c0.7-40.2,10.7-78.3,29.8-113.8c24.9-46.2,60.6-81.7,107.2-106.2
						c26.3-13.9,54.2-23,83.6-26.6c46.9-5.9,92.4-0.4,136,18.9c26.3,11.6,50.1,27.1,71.3,46.6c20.9,19.2,37.8,41.4,51.5,66.2
						C1105.8,591.2,1106.5,592,1107.1,592.9z M1128.7,1470.5c3.2-0.3,5.9-0.4,8.5-0.9c36.4-6.9,71.4-18.1,104.5-35.2
						c30.5-15.8,58.2-35.4,83.1-58.9c23.2-21.9,43.1-46.4,59.7-73.6c13.7-22.4,25-45.9,33.4-70.7c6.5-19.2,11.2-38.7,14.7-58.8
						c3.2-18.4,3.9-36.8,4.9-55.3c0.3-6.1-0.8-12.2-0.7-18.4c0.2-23.4-3.6-46.3-8.9-68.9c-7.7-33.3-19.7-65-37.2-94.3
						c-10.4-17.5-22.8-33.8-34.3-50.6c-1.9-2.7-3.8-2.7-6.4-0.9c-2.7,1.9-5.6,3.5-8.5,5c-21.2,11.4-43.7,18.7-67.7,21.7
						c-17.4,2.2-34.6,2.2-51.9-0.4c-32.2-4.9-61.4-17.2-87.4-36.8c-1.7-1.3-3.5-2.5-5.9-4.3
						C1128.7,1070.1,1128.7,1270.1,1128.7,1470.5z M1042.2,909.7c-88.4,65-181.9,74.2-280.9,27.5c-57.6,99.2-68.3,242.1,7.4,365.2
						c40,64.9,95.5,112.5,165.4,142.9c34.4,14.9,70.3,24.2,108,27.5C1042.2,1284.7,1042.2,1097.3,1042.2,909.7z M1048.1,709.6
						c-0.1-89.7-74.7-165.8-168.5-165.6c-88.1,0.2-174.8,76.3-165.3,183.6c6.8,76.6,71.5,151.5,168.4,151
						C973.7,878.1,1049.2,803.6,1048.1,709.6z M1250.2,618.2c-54.3-2.6-101.7,43.7-103.8,98.3c-2.4,60,46.7,111.6,110.4,108.2
						c48.5-2.6,102.1-45.7,96.4-114.2C1349.3,664.7,1306.9,615.9,1250.2,618.2z"/>
					<path class="st11" d="M818.3,1544.4c-94.2,16.8-187.2,33.4-281.5,50.2c38.6-62.7,76.6-124.4,115-186.9
						c5.1,6.3,9.7,12.1,14.5,17.8c21.2,25.4,43.6,49.6,68.7,71.2c16.6,14.4,33.9,27.8,54,37.1c8,3.7,16.5,6.2,24.8,9.2
						C815,1543.4,816.1,1543.7,818.3,1544.4z"/>
					<path class="st11" d="M1048.1,709.6c1.1,94-74.4,168.5-165.3,169c-97,0.5-161.7-74.4-168.4-151
						c-9.5-107.3,77.1-183.4,165.3-183.6C973.4,543.7,1048,619.8,1048.1,709.6z M820.6,708.8c1.1,39.6,30.8,68.7,67.7,69.8
						c40,1.1,72.2-29.3,71.9-70.6c-0.2-38.3-30.4-68.5-68.7-68.9C851.4,638.7,821.6,669.8,820.6,708.8z"/>
					<path class="st11" d="M1250.2,618.2c56.8-2.3,99.1,46.6,103,92.3c5.8,68.6-47.8,111.6-96.4,114.2
						c-63.7,3.4-112.8-48.2-110.4-108.2C1148.5,661.8,1195.9,615.5,1250.2,618.2z M1180.5,716.1c-0.6,37,29.5,68.6,67.2,69.7
						c40.3,1.2,71.8-30.6,72-69.9c0.3-36.7-29.8-69.5-69.1-69.7C1210.1,646,1179.7,679.5,1180.5,716.1z"/>
					<path class="st11" d="M870.2,700.3c0-0.6,0-1.2,0-1.8c0-3.6,0-7.2,0-10.9c0.1-0.5,0.1-1.1,0.2-1.7c0.2-0.3,0.5-0.7,0.7-1
						c3.6-12.7,11.8-20.8,24.4-24.5c6,0,12.1,0,18.1,0c0.5,0.1,1.1,0.1,1.7,0.2c0.3,0.2,0.7,0.5,1,0.7c0.3,0,0.6,0.1,0.9,0.1
						c1.2,0.6,2.4,1.2,3.6,1.8c0.6,0.3,1.2,0.6,1.8,1c0.3,0.3,0.6,0.6,0.9,0.8c0.2,0.1,0.5,0.1,0.8,0.1c0.3,0.3,0.7,0.6,1,0.8
						c0.3,0.3,0.6,0.6,0.9,0.9c0.3,0.3,0.6,0.6,0.9,0.9l0,0c0.3,0.3,0.6,0.6,0.9,0.9c0.6,0.6,1.2,1.2,1.8,1.8
						c0.3,0.3,0.6,0.6,0.9,0.9l0,0c0.3,0.3,0.6,0.6,0.9,0.9c2.2,5.3,5.1,10.5,6.4,16c3.8,17.2-8.9,35.6-26.2,39
						c-10.7,2.2-20.1-0.7-28.9-6.4c-0.3-0.3-0.6-0.6-0.9-0.9l0,0c-0.3-0.3-0.6-0.6-0.9-0.9c-0.6-0.6-1.2-1.2-1.8-1.8
						c-0.3-0.3-0.6-0.6-0.9-0.9l0,0c-0.3-0.3-0.6-0.6-0.9-0.9c-0.3-0.3-0.6-0.6-0.9-0.9c-0.3-0.3-0.6-0.7-0.8-1
						c0-0.3-0.1-0.5-0.1-0.8c-0.3-0.3-0.6-0.6-0.8-0.9c0-0.3-0.1-0.6-0.2-0.9c-0.2-0.3-0.5-0.6-0.8-0.9l0,0
						c-0.6-1.2-1.2-2.4-1.8-3.6c0-0.3-0.1-0.6-0.1-0.9c-0.2-0.3-0.5-0.7-0.7-1c-0.1-0.5-0.1-1.1-0.2-1.7
						C870.7,702.1,870.5,701.2,870.2,700.3z"/>
					<path class="st11" d="M913.6,660.4c-6,0-12.1,0-18.1,0c3.6-4,8.3-2.4,12.7-2.3C910,658.2,911.8,659.6,913.6,660.4z"/>
					<path class="st11" d="M870.2,687.6c0,3.6,0,7.2,0,10.9C867.7,695.9,867.7,690.8,870.2,687.6z"/>
					<path class="st11" d="M920.8,663.2c-1.2-0.6-2.4-1.2-3.6-1.8C918.4,662,919.6,662.6,920.8,663.2z"/>
					<path class="st11" d="M872,706.6c0.6,1.2,1.2,2.4,1.8,3.6C873.2,709,872.6,707.8,872,706.6z"/>
					<path class="st11" d="M870.2,700.3c0.3,0.9,0.6,1.8,0.8,2.7C870.7,702.1,870.5,701.2,870.2,700.3z"/>
					<path class="st11" d="M916.3,661.3c-0.3-0.2-0.7-0.5-1-0.7C915.6,660.9,915.9,661.1,916.3,661.3z"/>
					<path class="st11" d="M923.5,665c-0.3-0.3-0.6-0.6-0.9-0.8C922.9,664.5,923.2,664.7,923.5,665z"/>
					<path class="st11" d="M925.3,666c-0.3-0.3-0.7-0.6-1-0.8C924.6,665.4,924.9,665.7,925.3,666z"/>
					<path class="st11" d="M931.6,672.3c-0.3-0.3-0.6-0.6-0.9-0.9C931,671.7,931.3,672,931.6,672.3z"/>
					<path class="st11" d="M871,684.9c-0.2,0.3-0.5,0.7-0.7,1C870.6,685.6,870.8,685.2,871,684.9z"/>
					<path class="st11" d="M871.2,704.6c0.2,0.3,0.5,0.7,0.7,1C871.7,705.3,871.5,705,871.2,704.6z"/>
					<path class="st11" d="M873.8,710.2c0.2,0.3,0.5,0.6,0.8,0.9C874.3,710.8,874.1,710.5,873.8,710.2z"/>
					<path class="st11" d="M874.8,712c0.3,0.3,0.6,0.6,0.8,0.9C875.3,712.6,875,712.3,874.8,712z"/>
					<path class="st11" d="M875.7,713.7c0.3,0.3,0.6,0.7,0.8,1C876.3,714.3,876,714,875.7,713.7z"/>
					<path class="st11" d="M877.5,715.6c0.3,0.3,0.6,0.6,0.9,0.9C878,716.2,877.8,715.9,877.5,715.6z"/>
					<path class="st11" d="M878.3,716.5c0.3,0.3,0.6,0.6,0.9,0.9C878.9,717.1,878.6,716.8,878.3,716.5z"/>
					<path class="st11" d="M881,719.2c0.3,0.3,0.6,0.6,0.9,0.9C881.7,719.8,881.4,719.5,881,719.2z"/>
					<path class="st11" d="M882,720.1c0.3,0.3,0.6,0.6,0.9,0.9C882.6,720.7,882.3,720.4,882,720.1z"/>
					<path class="st11" d="M928,668.6c-0.3-0.3-0.6-0.6-0.9-0.9C927.4,668,927.7,668.3,928,668.6z"/>
					<path class="st11" d="M927.1,667.8c-0.3-0.3-0.6-0.6-0.9-0.9C926.5,667.2,926.8,667.5,927.1,667.8z"/>
					<path class="st11" d="M930.7,671.4c-0.3-0.3-0.6-0.6-0.9-0.9C930.1,670.8,930.4,671.1,930.7,671.4z"/>
					<path class="st11" d="M1227.5,690.5c0.2-19.8,16.4-34.1,39-33.5c14.9,0.4,30.8,14.6,30.3,34.2c-0.4,19.8-15.1,34.2-34.6,34.1
						C1241.9,725.2,1228.7,709.9,1227.5,690.5z"/>
				</g>
			</g>
		</g>
	</g>
	<g id="Layer_2_00000135668976406839607740000018412391572811430071_" class="st0">
		<g class="st1">
			<circle class="st9" cx="3491.4" cy="1534.1" r="983.9"/>
			<g>
				<circle class="st10" cx="3491.4" cy="1534.1" r="983.9"/>
				<g>
					<path class="st2" d="M3566.5,1102.5c8.7-7.8,16.6-15.6,25.3-22.5c22.7-18.1,48.4-29.9,76.7-36.2c15.5-3.5,31.1-4.7,46.9-4.3
						c33.8,0.9,65.3,10.3,94.2,28.1c33.1,20.5,57.9,48.4,74.1,83.8c9.1,19.9,14.5,40.8,16.4,62.8c2.4,28.6-1.3,56.2-11.2,83
						c-3.5,9.5-8.3,18.6-12.9,27.8c-1.3,2.5-1.5,4.1,0.5,6.3c24.5,28.5,45.2,59.6,61.7,93.3c19,38.6,32.5,79,39.4,121.6
						c2,12.5,3.7,25.1,4.3,37.8c1.1,21.6,2.4,43.2,1.6,64.7c-1.2,31.9-6.8,63.4-15.4,94.2c-8.6,30.9-20.4,60.6-35.4,88.9
						c-15.3,28.9-33.4,55.9-54.7,80.8c-29.3,34.2-62.7,63.8-100.7,88.1c-40.4,25.8-83.8,45.1-130.4,56.4
						c-18.9,4.6-38.1,7.7-57.3,10.6c-11.6,1.8-23.5,2.4-35.3,2.8c-15.6,0.4-31.2,0.8-46.8-0.1c-15.3-0.9-30.6-3.1-45.8-5.5
						c-24-3.7-47.5-9.8-70.6-17.7c-35.5-12.2-69-28.6-100.4-49.2c-31.4-20.5-59.7-44.6-85-72.1c-25.3-27.5-46.8-57.8-64.5-90.8
						c-19.5-36.2-34-74.2-42.5-114.4c-4-18.8-7-38-8.7-57.1c-1.8-20.4-2.2-41.1-1.7-61.6c0.9-34.8,7.2-69,16.7-102.5
						c8.8-30.7,20.8-60.1,35.8-88.3c2.8-5.3,5.7-10.6,8.9-15.7c1.4-2.3,1.5-3.7-0.3-5.8c-16.1-18.4-29.4-38.7-39.8-60.8
						c-9.8-20.9-17-42.7-20.3-65.5c-2.3-15.9-3.8-32.2-3.6-48.3c0.7-40.2,10.7-78.3,29.8-113.8c24.9-46.2,60.6-81.7,107.2-106.2
						c26.3-13.9,54.2-23,83.6-26.6c46.9-5.9,92.4-0.3,136,18.9c26.3,11.6,50.1,27.1,71.3,46.6c20.9,19.2,37.8,41.4,51.5,66.2
						C3565.2,1100.8,3565.9,1101.6,3566.5,1102.5z M3588.1,1980.1c3.2-0.3,5.9-0.4,8.5-0.9c36.4-6.9,71.4-18.1,104.5-35.2
						c30.5-15.8,58.2-35.4,83.1-58.9c23.2-21.9,43.1-46.4,59.7-73.6c13.7-22.4,25-45.9,33.4-70.7c6.5-19.2,11.2-38.7,14.7-58.8
						c3.2-18.4,3.9-36.8,4.9-55.3c0.3-6.1-0.8-12.2-0.7-18.4c0.2-23.4-3.6-46.3-8.9-68.9c-7.7-33.3-19.7-65-37.2-94.3
						c-10.4-17.5-22.8-33.8-34.3-50.6c-1.9-2.7-3.8-2.7-6.4-0.9c-2.7,1.9-5.6,3.5-8.5,5.1c-21.2,11.4-43.7,18.7-67.7,21.7
						c-17.4,2.2-34.6,2.2-51.9-0.4c-32.2-4.9-61.4-17.2-87.4-36.8c-1.7-1.3-3.5-2.6-5.9-4.3
						C3588.1,1579.7,3588.1,1779.7,3588.1,1980.1z M3501.6,1419.3c-88.4,65-181.9,74.2-280.9,27.5c-57.6,99.2-68.3,242.1,7.4,365.2
						c40,64.9,95.5,112.5,165.4,142.9c34.4,14.9,70.3,24.2,108,27.5C3501.6,1794.2,3501.6,1606.9,3501.6,1419.3z M3507.4,1219.2
						c-0.1-89.7-74.7-165.8-168.5-165.6c-88.1,0.2-174.8,76.3-165.3,183.6c6.8,76.6,71.5,151.5,168.4,151
						C3433.1,1387.7,3508.5,1313.2,3507.4,1219.2z M3709.6,1127.7c-54.3-2.6-101.7,43.7-103.8,98.3c-2.4,60,46.7,111.6,110.4,108.2
						c48.5-2.6,102.1-45.7,96.4-114.2C3808.7,1174.3,3766.3,1125.5,3709.6,1127.7z"/>
					<path class="st3" d="M3277.7,2054c-94.2,16.8-187.2,33.4-281.5,50.1c38.6-62.7,76.6-124.4,115-186.9
						c5.1,6.3,9.7,12.1,14.5,17.8c21.1,25.4,43.6,49.6,68.7,71.2c16.6,14.4,33.9,27.8,54,37.1c8,3.7,16.5,6.2,24.8,9.2
						C3274.3,2053,3275.4,2053.3,3277.7,2054z"/>
					<path class="st4" d="M3507.4,1219.2c1.1,94-74.4,168.6-165.3,169c-97,0.5-161.7-74.4-168.4-151
						c-9.5-107.3,77.1-183.4,165.3-183.6C3432.7,1053.3,3507.4,1129.4,3507.4,1219.2z M3280,1218.4c1.1,39.6,30.8,68.7,67.7,69.8
						c40,1.1,72.2-29.3,71.9-70.6c-0.2-38.3-30.4-68.5-68.7-68.9C3310.8,1148.3,3280.9,1179.4,3280,1218.4z"/>
					<path class="st5" d="M3709.6,1127.7c56.8-2.3,99.1,46.6,103,92.3c5.8,68.6-47.9,111.6-96.4,114.2
						c-63.7,3.4-112.8-48.2-110.4-108.2C3607.9,1171.4,3655.3,1125.1,3709.6,1127.7z M3639.9,1225.7c-0.6,37,29.5,68.6,67.2,69.7
						c40.3,1.2,71.8-30.6,72-69.9c0.3-36.7-29.8-69.5-69.1-69.7C3669.5,1155.6,3639.1,1189.1,3639.9,1225.7z"/>
					<path class="st4" d="M3329.6,1209.9c0-0.6,0-1.2,0-1.8c0-3.6,0-7.2,0-10.9c0.1-0.6,0.1-1.1,0.2-1.7c0.2-0.3,0.5-0.7,0.7-1
						c3.6-12.7,11.8-20.8,24.4-24.5c6,0,12.1,0,18.1,0c0.6,0.1,1.1,0.1,1.7,0.2c0.4,0.2,0.7,0.5,1.1,0.7c0.3,0,0.6,0.1,0.9,0.1
						c1.2,0.6,2.4,1.2,3.6,1.8c0.6,0.3,1.2,0.6,1.8,1c0.3,0.3,0.6,0.6,0.9,0.8c0.2,0.1,0.5,0.1,0.8,0.1c0.3,0.3,0.7,0.6,1,0.8
						c0.3,0.3,0.6,0.6,0.9,0.9c0.3,0.3,0.6,0.6,0.9,0.9l0,0c0.3,0.3,0.6,0.6,0.9,0.9c0.6,0.6,1.2,1.2,1.8,1.8
						c0.3,0.3,0.6,0.6,0.9,0.9l0,0c0.3,0.3,0.6,0.6,0.9,0.9c2.2,5.3,5.1,10.5,6.4,16c3.8,17.2-8.9,35.6-26.2,39.1
						c-10.7,2.2-20.1-0.7-28.9-6.4c-0.3-0.3-0.6-0.6-0.9-0.9l0,0c-0.3-0.3-0.6-0.6-0.9-0.9c-0.6-0.6-1.2-1.2-1.8-1.8
						c-0.3-0.3-0.6-0.6-0.9-0.9l0,0c-0.3-0.3-0.6-0.6-0.9-0.9c-0.3-0.3-0.6-0.6-0.9-0.9c-0.3-0.3-0.6-0.7-0.8-1
						c0-0.3-0.1-0.5-0.1-0.8c-0.3-0.3-0.6-0.6-0.8-0.9c-0.1-0.3-0.1-0.6-0.2-0.9c-0.2-0.3-0.5-0.6-0.8-0.9l0,0
						c-0.6-1.2-1.2-2.4-1.8-3.6c0-0.3-0.1-0.6-0.1-0.9c-0.2-0.3-0.5-0.7-0.7-1.1c-0.1-0.5-0.1-1.1-0.2-1.7
						C3330.1,1211.7,3329.8,1210.8,3329.6,1209.9z"/>
					<path class="st6" d="M3372.9,1170c-6,0-12.1,0-18.1,0c3.6-4,8.4-2.4,12.7-2.3C3369.3,1167.8,3371.1,1169.2,3372.9,1170z"/>
					<path class="st7" d="M3329.5,1197.2c0,3.6,0,7.2,0,10.9C3327.1,1205.5,3327.1,1200.4,3329.5,1197.2z"/>
					<path class="st6" d="M3380.2,1172.8c-1.2-0.6-2.4-1.2-3.6-1.8C3377.8,1171.6,3379,1172.2,3380.2,1172.8z"/>
					<path class="st7" d="M3331.4,1216.2c0.6,1.2,1.2,2.4,1.8,3.6C3332.6,1218.6,3332,1217.4,3331.4,1216.2z"/>
					<path class="st7" d="M3329.6,1209.9c0.3,0.9,0.6,1.8,0.9,2.7C3330.1,1211.7,3329.8,1210.8,3329.6,1209.9z"/>
					<path class="st6" d="M3375.7,1170.9c-0.3-0.2-0.7-0.5-1.1-0.7C3375,1170.5,3375.3,1170.7,3375.7,1170.9z"/>
					<path class="st6" d="M3382.9,1174.6c-0.3-0.3-0.6-0.6-0.9-0.8C3382.3,1174,3382.6,1174.3,3382.9,1174.6z"/>
					<path class="st6" d="M3384.7,1175.6c-0.3-0.3-0.7-0.6-1-0.8C3384,1175,3384.3,1175.3,3384.7,1175.6z"/>
					<path class="st6" d="M3391,1181.9c-0.3-0.3-0.6-0.6-0.9-0.9C3390.4,1181.3,3390.7,1181.6,3391,1181.9z"/>
					<path class="st7" d="M3330.4,1194.5c-0.2,0.3-0.5,0.7-0.7,1C3330,1195.2,3330.2,1194.8,3330.4,1194.5z"/>
					<path class="st7" d="M3330.6,1214.2c0.2,0.3,0.5,0.7,0.7,1C3331.1,1214.9,3330.8,1214.6,3330.6,1214.2z"/>
					<path class="st7" d="M3333.2,1219.8c0.2,0.3,0.5,0.6,0.8,0.9C3333.7,1220.4,3333.5,1220.1,3333.2,1219.8z"/>
					<path class="st7" d="M3334.1,1221.5c0.3,0.3,0.6,0.6,0.8,0.9C3334.7,1222.2,3334.4,1221.9,3334.1,1221.5z"/>
					<path class="st7" d="M3335.1,1223.2c0.3,0.3,0.6,0.7,0.8,1C3335.7,1223.9,3335.4,1223.6,3335.1,1223.2z"/>
					<path class="st7" d="M3336.8,1225.2c0.3,0.3,0.6,0.6,0.9,0.9C3337.4,1225.8,3337.1,1225.5,3336.8,1225.2z"/>
					<path class="st7" d="M3337.7,1226.1c0.3,0.3,0.6,0.6,0.9,0.9C3338.3,1226.7,3338,1226.4,3337.7,1226.1z"/>
					<path class="st7" d="M3340.4,1228.8c0.3,0.3,0.6,0.6,0.9,0.9C3341,1229.4,3340.7,1229.1,3340.4,1228.8z"/>
					<path class="st7" d="M3341.4,1229.7c0.3,0.3,0.6,0.6,0.9,0.9C3342,1230.3,3341.7,1230,3341.4,1229.7z"/>
					<path class="st6" d="M3387.4,1178.2c-0.3-0.3-0.6-0.6-0.9-0.9C3386.8,1177.6,3387.1,1177.9,3387.4,1178.2z"/>
					<path class="st6" d="M3386.5,1177.3c-0.3-0.3-0.6-0.6-0.9-0.9C3385.9,1176.8,3386.2,1177,3386.5,1177.3z"/>
					<path class="st6" d="M3390.1,1181c-0.3-0.3-0.6-0.6-0.9-0.9C3389.5,1180.4,3389.8,1180.7,3390.1,1181z"/>
					<path class="st4" d="M3686.8,1200.1c0.2-19.8,16.4-34.1,39-33.5c14.9,0.4,30.8,14.6,30.3,34.2c-0.4,19.8-15.1,34.2-34.6,34.1
						C3701.3,1234.8,3688.1,1219.5,3686.8,1200.1z"/>
				</g>
			</g>
		</g>
		
			<image style="overflow:visible;enable-background:new    ;" width="330" height="178" xlink:href="7CA0967A.jpg"  transform="matrix(1 0 0 1 2518.386 227.5855)">
		</image>
	</g>
	<rect x="-2387.2" y="1679.4" class="st13" width="1865.2" height="1554.3"/>
	<g>
		<defs>
			<circle id="SVGID_1_" cx="1032" cy="1024.5" r="983.9"/>
		</defs>
		<defs>
			<circle id="SVGID_00000155824646909526335250000017789815525875620519_" cx="1032" cy="1024.5" r="983.9"/>
		</defs>
		<defs>
			<path id="SVGID_00000158707323605373033730000000904511493306674069_" d="M1107.1,592.9c8.7-7.8,16.6-15.6,25.3-22.5
				c22.7-18.1,48.4-29.9,76.7-36.2c15.5-3.5,31.1-4.7,46.8-4.3c33.8,0.9,65.3,10.3,94.2,28.1c33.1,20.5,57.9,48.4,74.1,83.8
				c9.1,19.9,14.5,40.8,16.4,62.8c2.4,28.6-1.3,56.2-11.2,83c-3.5,9.5-8.3,18.6-12.9,27.8c-1.3,2.5-1.5,4.1,0.5,6.3
				c24.5,28.5,45.2,59.5,61.7,93.3c19,38.6,32.5,79,39.4,121.5c2,12.5,3.7,25.1,4.3,37.8c1.1,21.6,2.4,43.2,1.6,64.7
				c-1.2,31.9-6.8,63.4-15.4,94.2c-8.6,30.9-20.4,60.6-35.4,88.9c-15.3,28.9-33.4,55.9-54.7,80.8c-29.3,34.2-62.7,63.8-100.7,88.1
				c-40.4,25.8-83.8,45.1-130.4,56.4c-18.9,4.6-38.1,7.7-57.3,10.6c-11.6,1.8-23.5,2.4-35.3,2.8c-15.6,0.4-31.2,0.8-46.8-0.1
				c-15.3-0.9-30.6-3.1-45.8-5.5c-24-3.7-47.5-9.8-70.5-17.7c-35.5-12.2-69-28.6-100.5-49.2c-31.4-20.5-59.7-44.6-85-72.1
				c-25.3-27.5-46.8-57.8-64.5-90.8c-19.5-36.2-34-74.2-42.5-114.4c-4-18.8-7-38-8.7-57.1c-1.8-20.4-2.2-41.1-1.7-61.6
				c0.9-34.8,7.2-69,16.7-102.5c8.8-30.7,20.8-60.1,35.8-88.3c2.8-5.3,5.7-10.6,8.9-15.7c1.4-2.3,1.5-3.7-0.3-5.8
				c-16.1-18.4-29.4-38.7-39.8-60.8c-9.8-20.9-17-42.7-20.3-65.5c-2.3-15.9-3.8-32.2-3.6-48.3c0.7-40.2,10.7-78.3,29.8-113.8
				c24.9-46.2,60.6-81.7,107.2-106.2c26.3-13.9,54.2-23,83.6-26.6c46.9-5.9,92.4-0.4,136,18.9c26.3,11.6,50.1,27.1,71.3,46.6
				c20.9,19.2,37.8,41.4,51.5,66.2C1105.8,591.2,1106.5,592,1107.1,592.9z M1128.7,1470.5c3.2-0.3,5.9-0.4,8.5-0.9
				c36.4-6.9,71.4-18.1,104.5-35.2c30.5-15.8,58.2-35.4,83.1-58.9c23.2-21.9,43.1-46.4,59.7-73.6c13.7-22.4,25-45.9,33.4-70.7
				c6.5-19.2,11.2-38.7,14.7-58.8c3.2-18.4,3.9-36.8,4.9-55.3c0.3-6.1-0.8-12.2-0.7-18.4c0.2-23.4-3.6-46.3-8.9-68.9
				c-7.7-33.3-19.7-65-37.2-94.3c-10.4-17.5-22.8-33.8-34.3-50.6c-1.9-2.7-3.8-2.7-6.4-0.9c-2.7,1.9-5.6,3.5-8.5,5
				c-21.2,11.4-43.7,18.7-67.7,21.7c-17.4,2.2-34.6,2.2-51.9-0.4c-32.2-4.9-61.4-17.2-87.4-36.8c-1.7-1.3-3.5-2.5-5.9-4.3
				C1128.7,1070.1,1128.7,1270.1,1128.7,1470.5z M1042.2,909.7c-88.4,65-181.9,74.2-280.9,27.5c-57.6,99.2-68.3,242.1,7.4,365.2
				c40,64.9,95.5,112.5,165.4,142.9c34.4,14.9,70.3,24.2,108,27.5C1042.2,1284.7,1042.2,1097.3,1042.2,909.7z M1048.1,709.6
				c-0.1-89.7-74.7-165.8-168.5-165.6c-88.1,0.2-174.8,76.3-165.3,183.6c6.8,76.6,71.5,151.5,168.4,151
				C973.7,878.1,1049.2,803.6,1048.1,709.6z M1250.2,618.2c-54.3-2.6-101.7,43.7-103.8,98.3c-2.4,60,46.7,111.6,110.4,108.2
				c48.5-2.6,102.1-45.7,96.4-114.2C1349.3,664.7,1306.9,615.9,1250.2,618.2z"/>
		</defs>
		<defs>
			<path id="SVGID_00000059987947203716036920000006574352008750691986_" d="M818.3,1544.4c-94.2,16.8-187.2,33.4-281.5,50.2
				c38.6-62.7,76.6-124.4,115-186.9c5.1,6.3,9.7,12.1,14.5,17.8c21.2,25.4,43.6,49.6,68.7,71.2c16.6,14.4,33.9,27.8,54,37.1
				c8,3.7,16.5,6.2,24.8,9.2C815,1543.4,816.1,1543.7,818.3,1544.4z"/>
		</defs>
		<defs>
			<path id="SVGID_00000180345768316146912190000016304873881474987160_" d="M1048.1,709.6c1.1,94-74.4,168.5-165.3,169
				c-97,0.5-161.7-74.4-168.4-151c-9.5-107.3,77.1-183.4,165.3-183.6C973.4,543.7,1048,619.8,1048.1,709.6z M820.6,708.8
				c1.1,39.6,30.8,68.7,67.7,69.8c40,1.1,72.2-29.3,71.9-70.6c-0.2-38.3-30.4-68.5-68.7-68.9C851.4,638.7,821.6,669.8,820.6,708.8z"
				/>
		</defs>
		<defs>
			<path id="SVGID_00000103227300219565140030000004599661247884249235_" d="M1250.2,618.2c56.8-2.3,99.1,46.6,103,92.3
				c5.8,68.6-47.8,111.6-96.4,114.2c-63.7,3.4-112.8-48.2-110.4-108.2C1148.5,661.8,1195.9,615.5,1250.2,618.2z M1180.5,716.1
				c-0.6,37,29.5,68.6,67.2,69.7c40.3,1.2,71.8-30.6,72-69.9c0.3-36.7-29.8-69.5-69.1-69.7C1210.1,646,1179.7,679.5,1180.5,716.1z"
				/>
		</defs>
		<defs>
			<path id="SVGID_00000057864796369924796260000011249344715494137985_" d="M870.2,700.3c0-0.6,0-1.2,0-1.8c0-3.6,0-7.2,0-10.9
				c0.1-0.5,0.1-1.1,0.2-1.7c0.2-0.3,0.5-0.7,0.7-1c3.6-12.7,11.8-20.8,24.4-24.5c6,0,12.1,0,18.1,0c0.5,0.1,1.1,0.1,1.7,0.2
				c0.3,0.2,0.7,0.5,1,0.7c0.3,0,0.6,0.1,0.9,0.1c1.2,0.6,2.4,1.2,3.6,1.8c0.6,0.3,1.2,0.6,1.8,1c0.3,0.3,0.6,0.6,0.9,0.8
				c0.2,0.1,0.5,0.1,0.8,0.1c0.3,0.3,0.7,0.6,1,0.8c0.3,0.3,0.6,0.6,0.9,0.9c0.3,0.3,0.6,0.6,0.9,0.9l0,0c0.3,0.3,0.6,0.6,0.9,0.9
				c0.6,0.6,1.2,1.2,1.8,1.8c0.3,0.3,0.6,0.6,0.9,0.9l0,0c0.3,0.3,0.6,0.6,0.9,0.9c2.2,5.3,5.1,10.5,6.4,16
				c3.8,17.2-8.9,35.6-26.2,39c-10.7,2.2-20.1-0.7-28.9-6.4c-0.3-0.3-0.6-0.6-0.9-0.9l0,0c-0.3-0.3-0.6-0.6-0.9-0.9
				c-0.6-0.6-1.2-1.2-1.8-1.8c-0.3-0.3-0.6-0.6-0.9-0.9l0,0c-0.3-0.3-0.6-0.6-0.9-0.9c-0.3-0.3-0.6-0.6-0.9-0.9
				c-0.3-0.3-0.6-0.7-0.8-1c0-0.3-0.1-0.5-0.1-0.8c-0.3-0.3-0.6-0.6-0.8-0.9c0-0.3-0.1-0.6-0.2-0.9c-0.2-0.3-0.5-0.6-0.8-0.9l0,0
				c-0.6-1.2-1.2-2.4-1.8-3.6c0-0.3-0.1-0.6-0.1-0.9c-0.2-0.3-0.5-0.7-0.7-1c-0.1-0.5-0.1-1.1-0.2-1.7
				C870.7,702.1,870.5,701.2,870.2,700.3z"/>
		</defs>
		<defs>
			<path id="SVGID_00000152223323543014163570000014016534274567756182_" d="M913.6,660.4c-6,0-12.1,0-18.1,0
				c3.6-4,8.3-2.4,12.7-2.3C910,658.2,911.8,659.6,913.6,660.4z"/>
		</defs>
		<defs>
			<path id="SVGID_00000178164834014128649940000001820119817504063390_" d="M870.2,687.6c0,3.6,0,7.2,0,10.9
				C867.7,695.9,867.7,690.8,870.2,687.6z"/>
		</defs>
		<defs>
			<path id="SVGID_00000039113304839651027760000007766203566884568232_" d="M920.8,663.2c-1.2-0.6-2.4-1.2-3.6-1.8
				C918.4,662,919.6,662.6,920.8,663.2z"/>
		</defs>
		<defs>
			<path id="SVGID_00000160172363572096448200000002458609877451321504_" d="M872,706.6c0.6,1.2,1.2,2.4,1.8,3.6
				C873.2,709,872.6,707.8,872,706.6z"/>
		</defs>
		<defs>
			<path id="SVGID_00000176013571568436399380000015191159035013122743_" d="M870.2,700.3c0.3,0.9,0.6,1.8,0.8,2.7
				C870.7,702.1,870.5,701.2,870.2,700.3z"/>
		</defs>
		<defs>
			<path id="SVGID_00000183943016703876544400000016430304299645461433_" d="M916.3,661.3c-0.3-0.2-0.7-0.5-1-0.7
				C915.6,660.9,915.9,661.1,916.3,661.3z"/>
		</defs>
		<defs>
			<path id="SVGID_00000072981291951720558930000013586215727167309493_" d="M923.5,665c-0.3-0.3-0.6-0.6-0.9-0.8
				C922.9,664.5,923.2,664.7,923.5,665z"/>
		</defs>
		<defs>
			<path id="SVGID_00000096749254033394275700000000958197281033390258_" d="M925.3,666c-0.3-0.3-0.7-0.6-1-0.8
				C924.6,665.4,924.9,665.7,925.3,666z"/>
		</defs>
		<defs>
			<path id="SVGID_00000024690039168552581790000012243322861255417234_" d="M931.6,672.3c-0.3-0.3-0.6-0.6-0.9-0.9
				C931,671.7,931.3,672,931.6,672.3z"/>
		</defs>
		<defs>
			<path id="SVGID_00000173119182478559061130000014191350587026976939_" d="M871,684.9c-0.2,0.3-0.5,0.7-0.7,1
				C870.6,685.6,870.8,685.2,871,684.9z"/>
		</defs>
		<defs>
			<path id="SVGID_00000098179799194183599510000013899554107275733382_" d="M871.2,704.6c0.2,0.3,0.5,0.7,0.7,1
				C871.7,705.3,871.5,705,871.2,704.6z"/>
		</defs>
		<defs>
			<path id="SVGID_00000121266831038672937080000017623985886076844206_" d="M873.8,710.2c0.2,0.3,0.5,0.6,0.8,0.9
				C874.3,710.8,874.1,710.5,873.8,710.2z"/>
		</defs>
		<defs>
			<path id="SVGID_00000073696855169040142650000004603006539275708819_" d="M874.8,712c0.3,0.3,0.6,0.6,0.8,0.9
				C875.3,712.6,875,712.3,874.8,712z"/>
		</defs>
		<defs>
			<path id="SVGID_00000107586462253078727220000011668377970597980308_" d="M875.7,713.7c0.3,0.3,0.6,0.7,0.8,1
				C876.3,714.3,876,714,875.7,713.7z"/>
		</defs>
		<defs>
			<path id="SVGID_00000088845274215764627560000008379733215145268621_" d="M877.5,715.6c0.3,0.3,0.6,0.6,0.9,0.9
				C878,716.2,877.8,715.9,877.5,715.6z"/>
		</defs>
		<defs>
			<path id="SVGID_00000147207953274028603950000009465036032223633292_" d="M878.3,716.5c0.3,0.3,0.6,0.6,0.9,0.9
				C878.9,717.1,878.6,716.8,878.3,716.5z"/>
		</defs>
		<defs>
			<path id="SVGID_00000026869050664614503260000002058193408289614759_" d="M881,719.2c0.3,0.3,0.6,0.6,0.9,0.9
				C881.7,719.8,881.4,719.5,881,719.2z"/>
		</defs>
		<defs>
			<path id="SVGID_00000047024667816428009650000001630252199080747178_" d="M882,720.1c0.3,0.3,0.6,0.6,0.9,0.9
				C882.6,720.7,882.3,720.4,882,720.1z"/>
		</defs>
		<defs>
			<path id="SVGID_00000059998534097832887410000007210840774400955534_" d="M928,668.6c-0.3-0.3-0.6-0.6-0.9-0.9
				C927.4,668,927.7,668.3,928,668.6z"/>
		</defs>
		<defs>
			<path id="SVGID_00000053525498874080218480000005351016893138869667_" d="M927.1,667.8c-0.3-0.3-0.6-0.6-0.9-0.9
				C926.5,667.2,926.8,667.5,927.1,667.8z"/>
		</defs>
		<defs>
			<path id="SVGID_00000095299043525657726030000009262104327749518269_" d="M930.7,671.4c-0.3-0.3-0.6-0.6-0.9-0.9
				C930.1,670.8,930.4,671.1,930.7,671.4z"/>
		</defs>
		<defs>
			<path id="SVGID_00000157290433386247277710000016984813373535724683_" d="M1227.5,690.5c0.2-19.8,16.4-34.1,39-33.5
				c14.9,0.4,30.8,14.6,30.3,34.2c-0.4,19.8-15.1,34.2-34.6,34.1C1241.9,725.2,1228.7,709.9,1227.5,690.5z"/>
		</defs>
		<clipPath id="SVGID_00000014603567387445316090000002628667453873744803_">
			<use xlink:href="#SVGID_1_"  style="overflow:visible;"/>
		</clipPath>
		
			<clipPath id="SVGID_00000177452578844394019990000005052554177707572616_" style="clip-path:url(#SVGID_00000014603567387445316090000002628667453873744803_);">
			<use xlink:href="#SVGID_00000155824646909526335250000017789815525875620519_"  style="overflow:visible;"/>
		</clipPath>
		
			<clipPath id="SVGID_00000079473803098691480590000004235446473482470841_" style="clip-path:url(#SVGID_00000177452578844394019990000005052554177707572616_);">
			<use xlink:href="#SVGID_00000158707323605373033730000000904511493306674069_"  style="overflow:visible;"/>
		</clipPath>
		
			<clipPath id="SVGID_00000059299173852209038300000002511874944473533585_" style="clip-path:url(#SVGID_00000079473803098691480590000004235446473482470841_);">
			<use xlink:href="#SVGID_00000059987947203716036920000006574352008750691986_"  style="overflow:visible;"/>
		</clipPath>
		
			<clipPath id="SVGID_00000015353893609180472750000000334329637871965063_" style="clip-path:url(#SVGID_00000059299173852209038300000002511874944473533585_);">
			<use xlink:href="#SVGID_00000180345768316146912190000016304873881474987160_"  style="overflow:visible;"/>
		</clipPath>
		
			<clipPath id="SVGID_00000110464220920900455670000002768561275566780340_" style="clip-path:url(#SVGID_00000015353893609180472750000000334329637871965063_);">
			<use xlink:href="#SVGID_00000103227300219565140030000004599661247884249235_"  style="overflow:visible;"/>
		</clipPath>
		
			<clipPath id="SVGID_00000106117095697313856970000009987024044605847714_" style="clip-path:url(#SVGID_00000110464220920900455670000002768561275566780340_);">
			<use xlink:href="#SVGID_00000057864796369924796260000011249344715494137985_"  style="overflow:visible;"/>
		</clipPath>
		
			<clipPath id="SVGID_00000078765519489881781580000007224546980416211102_" style="clip-path:url(#SVGID_00000106117095697313856970000009987024044605847714_);">
			<use xlink:href="#SVGID_00000152223323543014163570000014016534274567756182_"  style="overflow:visible;"/>
		</clipPath>
		
			<clipPath id="SVGID_00000060731990060530608180000008516964135806950821_" style="clip-path:url(#SVGID_00000078765519489881781580000007224546980416211102_);">
			<use xlink:href="#SVGID_00000178164834014128649940000001820119817504063390_"  style="overflow:visible;"/>
		</clipPath>
		
			<clipPath id="SVGID_00000165202691847665010030000017031093158817341863_" style="clip-path:url(#SVGID_00000060731990060530608180000008516964135806950821_);">
			<use xlink:href="#SVGID_00000039113304839651027760000007766203566884568232_"  style="overflow:visible;"/>
		</clipPath>
		
			<clipPath id="SVGID_00000034782968692225715990000004205819075198290051_" style="clip-path:url(#SVGID_00000165202691847665010030000017031093158817341863_);">
			<use xlink:href="#SVGID_00000160172363572096448200000002458609877451321504_"  style="overflow:visible;"/>
		</clipPath>
		
			<clipPath id="SVGID_00000026123084850898300820000015114099836661427091_" style="clip-path:url(#SVGID_00000034782968692225715990000004205819075198290051_);">
			<use xlink:href="#SVGID_00000176013571568436399380000015191159035013122743_"  style="overflow:visible;"/>
		</clipPath>
		
			<clipPath id="SVGID_00000182511231989055906130000006003493267772558253_" style="clip-path:url(#SVGID_00000026123084850898300820000015114099836661427091_);">
			<use xlink:href="#SVGID_00000183943016703876544400000016430304299645461433_"  style="overflow:visible;"/>
		</clipPath>
		
			<clipPath id="SVGID_00000047752516090011494540000004278967518270804656_" style="clip-path:url(#SVGID_00000182511231989055906130000006003493267772558253_);">
			<use xlink:href="#SVGID_00000072981291951720558930000013586215727167309493_"  style="overflow:visible;"/>
		</clipPath>
		
			<clipPath id="SVGID_00000103958674373923629280000005595134370068057508_" style="clip-path:url(#SVGID_00000047752516090011494540000004278967518270804656_);">
			<use xlink:href="#SVGID_00000096749254033394275700000000958197281033390258_"  style="overflow:visible;"/>
		</clipPath>
		
			<clipPath id="SVGID_00000143611725252125763890000015626110065071476405_" style="clip-path:url(#SVGID_00000103958674373923629280000005595134370068057508_);">
			<use xlink:href="#SVGID_00000024690039168552581790000012243322861255417234_"  style="overflow:visible;"/>
		</clipPath>
		
			<clipPath id="SVGID_00000181768710020579354790000010158562194664595646_" style="clip-path:url(#SVGID_00000143611725252125763890000015626110065071476405_);">
			<use xlink:href="#SVGID_00000173119182478559061130000014191350587026976939_"  style="overflow:visible;"/>
		</clipPath>
		
			<clipPath id="SVGID_00000083788623973265001570000005961207373157126306_" style="clip-path:url(#SVGID_00000181768710020579354790000010158562194664595646_);">
			<use xlink:href="#SVGID_00000098179799194183599510000013899554107275733382_"  style="overflow:visible;"/>
		</clipPath>
		
			<clipPath id="SVGID_00000042003006743710362870000008567531038084700596_" style="clip-path:url(#SVGID_00000083788623973265001570000005961207373157126306_);">
			<use xlink:href="#SVGID_00000121266831038672937080000017623985886076844206_"  style="overflow:visible;"/>
		</clipPath>
		
			<clipPath id="SVGID_00000022524206890459708950000018036146670697353915_" style="clip-path:url(#SVGID_00000042003006743710362870000008567531038084700596_);">
			<use xlink:href="#SVGID_00000073696855169040142650000004603006539275708819_"  style="overflow:visible;"/>
		</clipPath>
		
			<clipPath id="SVGID_00000147208868438430425630000016303417256495457204_" style="clip-path:url(#SVGID_00000022524206890459708950000018036146670697353915_);">
			<use xlink:href="#SVGID_00000107586462253078727220000011668377970597980308_"  style="overflow:visible;"/>
		</clipPath>
		
			<clipPath id="SVGID_00000160893604908601679900000011688053433334064810_" style="clip-path:url(#SVGID_00000147208868438430425630000016303417256495457204_);">
			<use xlink:href="#SVGID_00000088845274215764627560000008379733215145268621_"  style="overflow:visible;"/>
		</clipPath>
		
			<clipPath id="SVGID_00000071532383329942107150000011036389493291191987_" style="clip-path:url(#SVGID_00000160893604908601679900000011688053433334064810_);">
			<use xlink:href="#SVGID_00000147207953274028603950000009465036032223633292_"  style="overflow:visible;"/>
		</clipPath>
		
			<clipPath id="SVGID_00000124122694017249392000000004559972179784297136_" style="clip-path:url(#SVGID_00000071532383329942107150000011036389493291191987_);">
			<use xlink:href="#SVGID_00000026869050664614503260000002058193408289614759_"  style="overflow:visible;"/>
		</clipPath>
		
			<clipPath id="SVGID_00000121993694756932240490000005160881963906419617_" style="clip-path:url(#SVGID_00000124122694017249392000000004559972179784297136_);">
			<use xlink:href="#SVGID_00000047024667816428009650000001630252199080747178_"  style="overflow:visible;"/>
		</clipPath>
		
			<clipPath id="SVGID_00000096042278990316919760000006928630970943173770_" style="clip-path:url(#SVGID_00000121993694756932240490000005160881963906419617_);">
			<use xlink:href="#SVGID_00000059998534097832887410000007210840774400955534_"  style="overflow:visible;"/>
		</clipPath>
		
			<clipPath id="SVGID_00000023983006422762733080000005416214054362524046_" style="clip-path:url(#SVGID_00000096042278990316919760000006928630970943173770_);">
			<use xlink:href="#SVGID_00000053525498874080218480000005351016893138869667_"  style="overflow:visible;"/>
		</clipPath>
		
			<clipPath id="SVGID_00000057846531450886082600000015844050555272468870_" style="clip-path:url(#SVGID_00000023983006422762733080000005416214054362524046_);">
			<use xlink:href="#SVGID_00000095299043525657726030000009262104327749518269_"  style="overflow:visible;"/>
		</clipPath>
		
			<clipPath id="SVGID_00000077322865531720322900000016390044677439629199_" style="clip-path:url(#SVGID_00000057846531450886082600000015844050555272468870_);">
			<use xlink:href="#SVGID_00000157290433386247277710000016984813373535724683_"  style="overflow:visible;"/>
		</clipPath>
		<g style="clip-path:url(#SVGID_00000077322865531720322900000016390044677439629199_);">
			<defs>
				<rect id="SVGID_00000158739875822130823840000005258379223574961307_" x="-413.2" y="-76.7" width="2890.5" height="2408.7"/>
			</defs>
			<clipPath id="SVGID_00000161590347329679771660000005409076814180899998_">
				<use xlink:href="#SVGID_00000158739875822130823840000005258379223574961307_"  style="overflow:visible;"/>
			</clipPath>
			
				<g id="b_00000165933039280124233210000017039218306722271670_" style="opacity:0.5;clip-path:url(#SVGID_00000161590347329679771660000005409076814180899998_);">
				<path class="st44" d="M772.1,2757.8c-151.8-26.5-267.6-86.5-353.3-183.2c-80.4,30.4-164.9,45.9-251.3,45.9
					c-392.5,0-711.9-319.4-711.9-711.9c0-392.5,319.4-711.9,711.9-711.9c392.5,0,711.9,319.4,711.9,711.9
					c0,195.4-81.2,383.4-223.1,517.6c20.4,107.6,66.3,207.5,136.6,297l34.9,44.5L772.1,2757.8z"/>
				<path class="st45" d="M780.8,2749.1c-151.8-26.5-267.6-86.5-353.3-183.2c-80.4,30.4-164.9,45.9-251.3,45.9
					c-392.5,0-711.9-319.4-711.9-711.9c0-392.5,319.4-711.9,711.9-711.9c392.5,0,711.9,319.4,711.9,711.9
					c0,195.4-81.2,383.4-223.1,517.6c20.4,107.6,66.3,207.5,136.6,297l34.9,44.5L780.8,2749.1z"/>
				<path class="st46" d="M789.5,2740.4c-151.8-26.5-267.6-86.5-353.3-183.2c-80.4,30.4-164.9,45.9-251.3,45.9
					c-392.5,0-711.9-319.4-711.9-711.9c0-392.5,319.4-711.9,711.9-711.9c392.5,0,711.9,319.4,711.9,711.9
					c0,195.4-81.2,383.4-223.1,517.6c20.4,107.6,66.3,207.5,136.6,297l34.9,44.5L789.5,2740.4z"/>
				<path class="st47" d="M798.2,2731.7c-151.8-26.5-267.6-86.5-353.3-183.2c-80.4,30.4-164.9,45.9-251.3,45.9
					c-392.5,0-711.9-319.4-711.9-711.9c0-392.5,319.4-711.9,711.9-711.9c392.5,0,711.9,319.4,711.9,711.9
					c0,195.4-81.2,383.4-223.1,517.6c20.4,107.6,66.3,207.5,136.6,297l34.9,44.5L798.2,2731.7z"/>
				<path class="st48" d="M806.9,2723c-151.8-26.5-267.6-86.5-353.3-183.2c-80.4,30.4-164.9,45.9-251.3,45.9
					c-392.5,0-711.9-319.4-711.9-711.9c0-392.5,319.4-711.9,711.9-711.9c392.5,0,711.9,319.4,711.9,711.9
					c0,195.4-81.2,383.4-223.1,517.6c20.4,107.6,66.3,207.5,136.6,297l34.9,44.5L806.9,2723z"/>
				<path class="st49" d="M815.6,2714.3c-151.8-26.5-267.6-86.5-353.3-183.2c-80.4,30.4-164.9,45.9-251.3,45.9
					c-392.5,0-711.9-319.4-711.9-711.9c0-392.5,319.4-711.9,711.9-711.9c392.5,0,711.9,319.4,711.9,711.9
					c0,195.4-81.2,383.4-223.1,517.6c20.4,107.6,66.3,207.5,136.6,297l34.9,44.5L815.6,2714.3z"/>
				<path class="st50" d="M824.3,2705.6c-151.8-26.5-267.6-86.5-353.3-183.2c-80.4,30.4-164.9,45.9-251.3,45.9
					c-392.5,0-711.9-319.4-711.9-711.9c0-392.5,319.4-711.9,711.9-711.9c392.5,0,711.9,319.4,711.9,711.9
					c0,195.4-81.2,383.4-223.1,517.6c20.4,107.6,66.3,207.5,136.6,297l34.9,44.5L824.3,2705.6z"/>
				<path class="st51" d="M833,2696.9c-151.8-26.5-267.6-86.5-353.3-183.2c-80.4,30.4-164.9,45.9-251.3,45.9
					c-392.5,0-711.9-319.4-711.9-711.9c0-392.5,319.4-711.9,711.9-711.9c392.5,0,711.9,319.4,711.9,711.9
					c0,195.4-81.2,383.4-223.1,517.6c20.4,107.6,66.3,207.5,136.6,297l34.9,44.5L833,2696.9z"/>
				<path class="st52" d="M841.7,2688.2c-151.8-26.5-267.6-86.5-353.3-183.2c-80.4,30.4-164.9,45.9-251.3,45.9
					c-392.5,0-711.9-319.4-711.9-711.9c0-392.5,319.4-711.9,711.9-711.9c392.5,0,711.9,319.4,711.9,711.9
					c0,195.4-81.2,383.4-223.1,517.6c20.4,107.6,66.3,207.5,136.6,297l34.9,44.5L841.7,2688.2z"/>
				<path class="st53" d="M850.4,2679.5c-151.8-26.5-267.6-86.5-353.3-183.2c-80.4,30.4-164.9,45.9-251.3,45.9
					c-392.5,0-711.9-319.4-711.9-711.9c0-392.5,319.4-711.9,711.9-711.9c392.5,0,711.9,319.4,711.9,711.9
					c0,195.4-81.2,383.4-223.1,517.6c20.4,107.6,66.3,207.5,136.6,297l34.9,44.5L850.4,2679.5z"/>
				<path class="st54" d="M859.1,2670.8c-151.8-26.5-267.6-86.5-353.3-183.2c-80.4,30.4-164.9,45.9-251.3,45.9
					c-392.5,0-711.9-319.4-711.9-711.9c0-392.5,319.4-711.9,711.9-711.9c392.5,0,711.9,319.4,711.9,711.9
					c0,195.4-81.2,383.4-223.1,517.6c20.4,107.6,66.3,207.5,136.6,297l34.9,44.5L859.1,2670.8z"/>
				<path class="st55" d="M867.8,2662.1c-151.8-26.5-267.6-86.5-353.3-183.2c-80.4,30.4-164.9,45.9-251.3,45.9
					c-392.5,0-711.9-319.4-711.9-711.9c0-392.5,319.4-711.9,711.9-711.9c392.5,0,711.9,319.4,711.9,711.9
					c0,195.4-81.2,383.4-223.1,517.6c20.4,107.6,66.3,207.5,136.6,297l34.9,44.5L867.8,2662.1z"/>
				<path class="st56" d="M876.5,2653.4c-151.8-26.5-267.6-86.5-353.3-183.2c-80.4,30.4-164.9,45.9-251.3,45.9
					c-392.5,0-711.9-319.4-711.9-711.9c0-392.5,319.4-711.9,711.9-711.9c392.5,0,711.9,319.4,711.9,711.9
					c0,195.4-81.2,383.4-223.1,517.6c20.4,107.6,66.3,207.5,136.6,297l34.9,44.5L876.5,2653.4z"/>
				<path class="st57" d="M885.2,2644.7c-151.8-26.5-267.6-86.5-353.3-183.2c-80.4,30.4-164.9,45.9-251.3,45.9
					c-392.5,0-711.9-319.4-711.9-711.9c0-392.5,319.4-711.9,711.9-711.9c392.5,0,711.9,319.4,711.9,711.9
					c0,195.4-81.2,383.4-223.1,517.6c20.4,107.6,66.3,207.5,136.6,297l34.9,44.5L885.2,2644.7z"/>
				<path class="st58" d="M893.9,2636c-151.8-26.5-267.6-86.5-353.3-183.2c-80.4,30.4-164.9,45.9-251.3,45.9
					c-392.5,0-711.9-319.4-711.9-711.9c0-392.5,319.4-711.9,711.9-711.9c392.5,0,711.9,319.4,711.9,711.9
					c0,195.4-81.2,383.4-223.1,517.6c20.4,107.6,66.3,207.5,136.6,297l34.9,44.5L893.9,2636z"/>
				<path class="st59" d="M902.7,2627.3c-151.8-26.5-267.6-86.5-353.3-183.2c-80.4,30.4-164.9,45.9-251.3,45.9
					c-392.5,0-711.9-319.4-711.9-711.9c0-392.5,319.4-711.9,711.9-711.9c392.5,0,711.9,319.4,711.9,711.9
					c0,195.4-81.2,383.4-223.1,517.6c20.4,107.6,66.3,207.5,136.6,297l34.9,44.5L902.7,2627.3z"/>
				<path class="st60" d="M911.4,2618.6c-151.8-26.5-267.6-86.5-353.3-183.2c-80.4,30.4-164.9,45.9-251.3,45.9
					c-392.5,0-711.9-319.4-711.9-711.9c0-392.5,319.4-711.9,711.9-711.9c392.5,0,711.9,319.4,711.9,711.9
					c0,195.4-81.2,383.4-223.1,517.6c20.4,107.6,66.3,207.5,136.6,297l34.9,44.5L911.4,2618.6z"/>
				<path class="st61" d="M920.1,2609.9c-151.8-26.5-267.6-86.5-353.3-183.2c-80.4,30.4-164.9,45.9-251.3,45.9
					c-392.5,0-711.9-319.4-711.9-711.9c0-392.5,319.4-711.9,711.9-711.9c392.5,0,711.9,319.4,711.9,711.9
					c0,195.4-81.2,383.4-223.1,517.6c20.4,107.6,66.3,207.5,136.6,297l34.9,44.5L920.1,2609.9z"/>
				<path class="st62" d="M928.8,2601.2c-151.8-26.5-267.6-86.5-353.3-183.2c-80.4,30.4-164.9,45.9-251.3,45.9
					c-392.5,0-711.9-319.4-711.9-711.9c0-392.5,319.4-711.9,711.9-711.9c392.5,0,711.9,319.4,711.9,711.9
					c0,195.4-81.2,383.4-223.1,517.6c20.4,107.6,66.3,207.5,136.6,297l34.9,44.5L928.8,2601.2z"/>
				<path class="st63" d="M937.5,2592.5c-151.8-26.5-267.6-86.5-353.3-183.2c-80.4,30.4-164.9,45.9-251.3,45.9
					c-392.5,0-711.9-319.4-711.9-711.9c0-392.5,319.4-711.9,711.9-711.9c392.5,0,711.9,319.4,711.9,711.9
					c0,195.4-81.2,383.4-223.1,517.6c20.4,107.6,66.3,207.5,136.6,297l34.9,44.5L937.5,2592.5z"/>
				<path class="st64" d="M946.2,2583.8c-151.8-26.5-267.6-86.5-353.3-183.2c-80.4,30.4-164.9,45.9-251.3,45.9
					c-392.5,0-711.9-319.4-711.9-711.9c0-392.5,319.4-711.9,711.9-711.9c392.5,0,711.9,319.4,711.9,711.9
					c0,195.4-81.2,383.4-223.1,517.6c20.4,107.6,66.3,207.5,136.6,297l34.9,44.5L946.2,2583.8z"/>
				<path class="st65" d="M954.9,2575c-151.8-26.5-267.6-86.5-353.3-183.2c-80.4,30.4-164.9,45.9-251.3,45.9
					c-392.5,0-711.9-319.4-711.9-711.9c0-392.5,319.4-711.9,711.9-711.9c392.5,0,711.9,319.4,711.9,711.9
					c0,195.4-81.2,383.4-223.1,517.6c20.4,107.6,66.3,207.5,136.6,297l34.9,44.5L954.9,2575z"/>
				<path class="st66" d="M963.6,2566.3c-151.8-26.5-267.6-86.5-353.3-183.2c-80.4,30.4-164.9,45.9-251.3,45.9
					c-392.5,0-711.9-319.4-711.9-711.9c0-392.5,319.4-711.9,711.9-711.9c392.5,0,711.9,319.4,711.9,711.9
					c0,195.4-81.2,383.4-223.1,517.6c20.4,107.6,66.3,207.5,136.6,297l34.9,44.5L963.6,2566.3z"/>
				<path class="st67" d="M972.3,2557.6c-151.8-26.5-267.6-86.5-353.3-183.2c-80.4,30.4-164.9,45.9-251.3,45.9
					c-392.5,0-711.9-319.4-711.9-711.9c0-392.5,319.4-711.9,711.9-711.9c392.5,0,711.9,319.4,711.9,711.9
					c0,195.4-81.2,383.4-223.1,517.6c20.4,107.6,66.3,207.5,136.6,297l34.9,44.5L972.3,2557.6z"/>
				<path class="st68" d="M981,2548.9c-151.8-26.5-267.6-86.5-353.3-183.2c-80.4,30.4-164.9,45.8-251.3,45.8
					c-392.5,0-711.9-319.4-711.9-711.9c0-392.5,319.4-711.9,711.9-711.9c392.5,0,711.9,319.4,711.9,711.9
					c0,195.4-81.2,383.4-223.1,517.6c20.4,107.6,66.3,207.5,136.6,297l34.9,44.5L981,2548.9z"/>
				<path class="st69" d="M989.7,2540.2c-151.8-26.5-267.6-86.5-353.3-183.2c-80.4,30.4-164.9,45.8-251.3,45.8
					c-392.5,0-711.9-319.4-711.9-711.9c0-392.5,319.4-711.9,711.9-711.9c392.5,0,711.9,319.4,711.9,711.9
					c0,195.4-81.2,383.4-223.1,517.6c20.4,107.6,66.3,207.5,136.6,297l34.9,44.5L989.7,2540.2z"/>
				<path class="st70" d="M998.4,2531.5c-151.8-26.5-267.6-86.5-353.3-183.2c-80.4,30.4-164.9,45.8-251.3,45.8
					c-392.5,0-711.9-319.4-711.9-711.9c0-392.5,319.4-711.9,711.9-711.9c392.5,0,711.9,319.4,711.9,711.9
					c0,195.4-81.2,383.4-223.1,517.6c20.4,107.6,66.3,207.5,136.6,297l34.9,44.5L998.4,2531.5z"/>
				<path class="st71" d="M1007.1,2522.8c-151.8-26.5-267.6-86.5-353.3-183.2c-80.4,30.4-164.9,45.8-251.3,45.8
					c-392.5,0-711.9-319.4-711.9-711.9c0-392.5,319.4-711.9,711.9-711.9c392.5,0,711.9,319.4,711.9,711.9
					c0,195.4-81.2,383.4-223.1,517.6c20.4,107.6,66.3,207.5,136.6,297l34.9,44.5L1007.1,2522.8z"/>
				<path class="st72" d="M1015.8,2514.1c-151.8-26.5-267.6-86.5-353.3-183.2c-80.4,30.4-164.9,45.8-251.3,45.8
					c-392.5,0-711.9-319.4-711.9-711.9c0-392.5,319.4-711.9,711.9-711.9c392.5,0,711.9,319.4,711.9,711.9
					c0,195.4-81.2,383.4-223.1,517.6c20.4,107.6,66.3,207.5,136.6,297l34.9,44.5L1015.8,2514.1z"/>
				<path class="st73" d="M1024.5,2505.4c-151.8-26.5-267.6-86.5-353.3-183.2c-80.4,30.4-164.9,45.8-251.3,45.8
					C27.4,2368-292,2048.6-292,1656.1c0-392.5,319.4-711.9,711.9-711.9c392.5,0,711.9,319.4,711.9,711.9
					c0,195.4-81.2,383.4-223.1,517.6c20.4,107.6,66.3,207.5,136.6,297l34.9,44.5L1024.5,2505.4z"/>
				<path class="st74" d="M1033.2,2496.7c-151.8-26.5-267.6-86.5-353.3-183.2c-80.4,30.4-164.9,45.8-251.3,45.8
					c-392.5,0-711.9-319.4-711.9-711.9c0-392.5,319.4-711.9,711.9-711.9c392.5,0,711.9,319.4,711.9,711.9
					c0,195.4-81.2,383.4-223.1,517.6c20.4,107.6,66.3,207.5,136.6,297l34.9,44.5L1033.2,2496.7z"/>
				<path class="st75" d="M1041.9,2488c-151.8-26.5-267.6-86.5-353.3-183.2c-80.4,30.4-164.9,45.8-251.3,45.8
					c-392.5,0-711.9-319.4-711.9-711.9c0-392.5,319.4-711.9,711.9-711.9c392.5,0,711.9,319.4,711.9,711.9
					c0,195.4-81.2,383.4-223.1,517.6c20.4,107.6,66.3,207.5,136.6,297l34.9,44.5L1041.9,2488z"/>
				<path class="st76" d="M1050.6,2479.3c-151.8-26.5-267.6-86.5-353.3-183.2c-80.4,30.4-164.9,45.8-251.3,45.8
					c-392.5,0-711.9-319.4-711.9-711.9c0-392.5,319.4-711.9,711.9-711.9c392.5,0,711.9,319.4,711.9,711.9
					c0,195.4-81.2,383.4-223.1,517.6c20.4,107.6,66.3,207.5,136.6,297l34.9,44.5L1050.6,2479.3z"/>
				<path class="st77" d="M1059.3,2470.6c-151.8-26.5-267.6-86.5-353.3-183.2c-80.4,30.4-164.9,45.8-251.3,45.8
					c-392.5,0-711.9-319.4-711.9-711.9c0-392.5,319.4-711.9,711.9-711.9c392.5,0,711.9,319.4,711.9,711.9
					c0,195.4-81.2,383.4-223.1,517.6c20.4,107.6,66.3,207.5,136.6,297l34.9,44.5L1059.3,2470.6z"/>
				<path class="st78" d="M1068,2461.9c-151.8-26.5-267.6-86.5-353.3-183.2c-80.4,30.4-164.9,45.8-251.3,45.8
					c-392.5,0-711.9-319.4-711.9-711.9c0-392.5,319.4-711.9,711.9-711.9c392.5,0,711.9,319.4,711.9,711.9
					c0,195.4-81.2,383.4-223.1,517.6c20.4,107.6,66.3,207.5,136.6,297l34.9,44.5L1068,2461.9z"/>
				<path class="st79" d="M1076.7,2453.2c-151.8-26.5-267.6-86.5-353.3-183.2c-80.4,30.4-164.9,45.8-251.3,45.8
					c-392.5,0-711.9-319.4-711.9-711.9c0-392.5,319.4-711.9,711.9-711.9c392.5,0,711.9,319.4,711.9,711.9
					c0,195.4-81.2,383.4-223.1,517.6c20.4,107.6,66.3,207.5,136.6,297l34.9,44.5L1076.7,2453.2z"/>
				<path class="st80" d="M1085.4,2444.5c-151.8-26.5-267.6-86.5-353.3-183.2c-80.4,30.4-164.9,45.8-251.3,45.8
					c-392.5,0-711.9-319.4-711.9-711.9c0-392.5,319.4-711.9,711.9-711.9c392.5,0,711.9,319.4,711.9,711.9
					c0,195.4-81.2,383.4-223.1,517.6c20.4,107.6,66.3,207.5,136.6,297l34.9,44.5L1085.4,2444.5z"/>
				<path class="st81" d="M1094.1,2435.8c-151.8-26.5-267.6-86.5-353.3-183.2c-80.4,30.4-164.9,45.8-251.3,45.8
					c-392.5,0-711.9-319.4-711.9-711.9c0-392.5,319.4-711.9,711.9-711.9c392.5,0,711.9,319.4,711.9,711.9
					c0,195.4-81.2,383.4-223.1,517.6c20.4,107.6,66.3,207.5,136.6,297l34.9,44.5L1094.1,2435.8z"/>
				<path class="st82" d="M1102.9,2427.1c-151.8-26.5-267.6-86.5-353.3-183.2c-80.4,30.4-164.9,45.8-251.3,45.8
					c-392.5,0-711.9-319.4-711.9-711.9c0-392.5,319.4-711.9,711.9-711.9c392.5,0,711.9,319.4,711.9,711.9
					c0,195.4-81.2,383.4-223.1,517.6c20.4,107.6,66.3,207.5,136.6,297l34.9,44.5L1102.9,2427.1z"/>
				<path class="st83" d="M1111.6,2418.4c-151.8-26.5-267.6-86.5-353.3-183.2c-80.4,30.4-164.9,45.8-251.3,45.8
					c-392.5,0-711.9-319.4-711.9-711.9c0-392.5,319.4-711.9,711.9-711.9c392.5,0,711.9,319.4,711.9,711.9
					c0,195.4-81.2,383.4-223.1,517.6c20.4,107.6,66.3,207.5,136.6,297l34.9,44.5L1111.6,2418.4z"/>
				<path class="st84" d="M1120.3,2409.7c-151.8-26.5-267.6-86.5-353.3-183.2c-80.4,30.4-164.9,45.8-251.3,45.8
					c-392.5,0-711.9-319.4-711.9-711.9c0-392.5,319.4-711.9,711.9-711.9c392.5,0,711.9,319.4,711.9,711.9
					c0,195.4-81.2,383.4-223.1,517.6c20.4,107.6,66.3,207.5,136.6,297l34.9,44.5L1120.3,2409.7z"/>
				<path class="st85" d="M1129,2401c-151.8-26.5-267.6-86.5-353.3-183.2c-80.4,30.4-164.9,45.8-251.3,45.8
					c-392.5,0-711.9-319.4-711.9-711.9c0-392.5,319.4-711.9,711.9-711.9c392.5,0,711.9,319.4,711.9,711.9
					c0,195.4-81.2,383.4-223.1,517.6c20.4,107.6,66.3,207.5,136.6,297l34.9,44.5L1129,2401z"/>
				<path class="st86" d="M1137.7,2392.3c-151.8-26.5-267.6-86.5-353.3-183.2c-80.4,30.4-164.9,45.8-251.3,45.8
					c-392.5,0-711.9-319.4-711.9-711.9c0-392.5,319.4-711.9,711.9-711.9c392.5,0,711.9,319.4,711.9,711.9
					c0,195.4-81.2,383.4-223.1,517.6c20.4,107.6,66.3,207.5,136.6,297l34.9,44.5L1137.7,2392.3z"/>
				<path class="st87" d="M1146.4,2383.6c-151.8-26.5-267.6-86.5-353.3-183.2c-80.4,30.4-164.9,45.8-251.3,45.8
					c-392.5,0-711.9-319.4-711.9-711.9c0-392.5,319.4-711.9,711.9-711.9c392.5,0,711.9,319.4,711.9,711.9
					c0,195.4-81.2,383.4-223.1,517.6c20.4,107.6,66.3,207.5,136.6,297l34.9,44.5L1146.4,2383.6z"/>
				<path class="st88" d="M1155.1,2374.9c-151.8-26.5-267.6-86.5-353.3-183.2c-80.4,30.4-164.9,45.8-251.3,45.8
					c-392.5,0-711.9-319.4-711.9-711.9c0-392.5,319.4-711.9,711.9-711.9c392.5,0,711.9,319.4,711.9,711.9
					c0,195.4-81.2,383.4-223.1,517.6c20.4,107.6,66.3,207.5,136.6,297l34.9,44.5L1155.1,2374.9z"/>
				<path class="st89" d="M1163.8,2366.1c-151.8-26.5-267.6-86.5-353.3-183.2c-80.4,30.4-164.9,45.8-251.3,45.8
					c-392.5,0-711.9-319.4-711.9-711.9c0-392.5,319.4-711.9,711.9-711.9c392.5,0,711.9,319.4,711.9,711.9
					c0,195.4-81.2,383.4-223.1,517.6c20.4,107.6,66.3,207.5,136.6,297l34.9,44.5L1163.8,2366.1z"/>
				<path class="st90" d="M1172.5,2357.4c-151.8-26.5-267.6-86.5-353.3-183.2c-80.4,30.4-164.9,45.8-251.3,45.8
					c-392.5,0-711.9-319.4-711.9-711.9c0-392.5,319.4-711.9,711.9-711.9c392.5,0,711.9,319.4,711.9,711.9
					c0,195.4-81.2,383.4-223.1,517.6c20.4,107.6,66.3,207.5,136.6,297l34.9,44.5L1172.5,2357.4z"/>
				<path class="st91" d="M1181.2,2348.7c-151.8-26.5-267.6-86.5-353.3-183.2c-80.4,30.4-164.9,45.8-251.3,45.8
					c-392.5,0-711.9-319.4-711.9-711.9c0-392.5,319.4-711.9,711.9-711.9c392.5,0,711.9,319.4,711.9,711.9
					c0,195.4-81.2,383.4-223.1,517.6c20.4,107.6,66.3,207.5,136.6,297l34.9,44.5L1181.2,2348.7z"/>
				<path class="st92" d="M1189.9,2340c-151.8-26.5-267.6-86.5-353.3-183.2c-80.4,30.4-164.9,45.8-251.3,45.8
					c-392.5,0-711.9-319.4-711.9-711.9c0-392.5,319.4-711.9,711.9-711.9c392.5,0,711.9,319.4,711.9,711.9
					c0,195.4-81.2,383.4-223.1,517.6c20.4,107.6,66.3,207.5,136.6,297l34.9,44.5L1189.9,2340z"/>
				<path class="st93" d="M1198.6,2331.3c-151.8-26.5-267.6-86.5-353.3-183.2c-80.4,30.4-164.9,45.8-251.3,45.8
					c-392.5,0-711.9-319.4-711.9-711.9c0-392.5,319.4-711.9,711.9-711.9c392.5,0,711.9,319.4,711.9,711.9
					c0,195.4-81.2,383.4-223.1,517.6c20.4,107.6,66.3,207.5,136.6,297l34.9,44.5L1198.6,2331.3z"/>
				<path class="st94" d="M1207.3,2322.6c-151.8-26.5-267.6-86.5-353.3-183.2c-80.4,30.4-164.9,45.8-251.3,45.8
					c-392.5,0-711.9-319.4-711.9-711.9c0-392.5,319.4-711.9,711.9-711.9c392.5,0,711.9,319.4,711.9,711.9
					c0,195.4-81.2,383.4-223.1,517.6c20.4,107.6,66.3,207.5,136.6,297l34.9,44.5L1207.3,2322.6z"/>
				<path class="st95" d="M1216,2313.9c-151.8-26.5-267.6-86.5-353.3-183.2c-80.4,30.4-164.9,45.8-251.3,45.8
					c-392.5,0-711.9-319.4-711.9-711.9c0-392.5,319.4-711.9,711.9-711.9c392.5,0,711.9,319.4,711.9,711.9
					c0,195.4-81.2,383.4-223.1,517.6c20.4,107.6,66.3,207.5,136.6,297l34.9,44.5L1216,2313.9z"/>
				<path class="st96" d="M1224.7,2305.2c-151.8-26.5-267.6-86.5-353.3-183.2c-80.4,30.4-164.9,45.8-251.3,45.8
					c-392.5,0-711.9-319.4-711.9-711.9c0-392.5,319.4-711.9,711.9-711.9c392.5,0,711.9,319.4,711.9,711.9
					c0,195.4-81.2,383.4-223.1,517.6c20.4,107.6,66.3,207.5,136.6,297l34.9,44.5L1224.7,2305.2z"/>
				<path class="st97" d="M1233.4,2296.5c-151.8-26.5-267.6-86.5-353.3-183.2c-80.4,30.4-164.9,45.8-251.3,45.8
					c-392.5,0-711.9-319.4-711.9-711.9c0-392.5,319.4-711.9,711.9-711.9c392.5,0,711.9,319.4,711.9,711.9
					c0,195.4-81.2,383.4-223.1,517.6c20.4,107.6,66.3,207.5,136.6,297l34.9,44.5L1233.4,2296.5z"/>
				<path class="st98" d="M1242.1,2287.8c-151.8-26.5-267.6-86.5-353.3-183.2c-80.4,30.4-164.9,45.8-251.3,45.8
					c-392.5,0-711.9-319.4-711.9-711.9c0-392.5,319.4-711.9,711.9-711.9c392.5,0,711.9,319.4,711.9,711.9
					c0,195.4-81.2,383.4-223.1,517.6c20.4,107.6,66.3,207.5,136.6,297l34.9,44.5L1242.1,2287.8z"/>
				<path class="st99" d="M1250.8,2279.1c-151.8-26.5-267.6-86.5-353.3-183.2c-80.4,30.4-164.9,45.8-251.3,45.8
					c-392.5,0-711.9-319.4-711.9-711.9c0-392.5,319.4-711.9,711.9-711.9c392.5,0,711.9,319.4,711.9,711.9
					c0,195.4-81.2,383.4-223.1,517.6c20.4,107.6,66.3,207.5,136.6,297l34.9,44.5L1250.8,2279.1z"/>
				<path class="st100" d="M1259.5,2270.4c-151.8-26.5-267.6-86.5-353.3-183.2c-80.4,30.4-164.9,45.8-251.3,45.8
					C262.4,2133-57,1813.6-57,1421.1c0-392.5,319.4-711.9,711.9-711.9c392.5,0,711.9,319.4,711.9,711.9
					c0,195.4-81.2,383.4-223.1,517.6c20.4,107.6,66.3,207.5,136.6,297l34.9,44.5L1259.5,2270.4z"/>
				<path class="st101" d="M1268.2,2261.7c-151.8-26.5-267.6-86.5-353.3-183.2c-80.4,30.4-164.9,45.8-251.3,45.8
					c-392.5,0-711.9-319.4-711.9-711.9c0-392.5,319.4-711.9,711.9-711.9c392.5,0,711.9,319.4,711.9,711.9
					c0,195.4-81.2,383.4-223.1,517.6c20.4,107.6,66.3,207.5,136.6,297l34.9,44.5L1268.2,2261.7z"/>
				<path class="st102" d="M1276.9,2253c-151.8-26.5-267.6-86.5-353.3-183.2c-80.4,30.4-164.9,45.8-251.3,45.8
					c-392.5,0-711.9-319.4-711.9-711.9c0-392.5,319.4-711.9,711.9-711.9c392.5,0,711.9,319.4,711.9,711.9
					c0,195.4-81.2,383.4-223.1,517.6c20.4,107.6,66.3,207.5,136.6,297l34.9,44.5L1276.9,2253z"/>
				<path class="st103" d="M1285.6,2244.3c-151.8-26.5-267.6-86.5-353.3-183.2c-80.4,30.4-164.9,45.8-251.3,45.8
					c-392.5,0-711.9-319.4-711.9-711.9c0-392.5,319.4-711.9,711.9-711.9c392.5,0,711.9,319.4,711.9,711.9
					c0,195.4-81.2,383.4-223.1,517.6c20.4,107.6,66.3,207.5,136.6,297l34.9,44.5L1285.6,2244.3z"/>
				<path class="st104" d="M1294.3,2235.6c-151.8-26.5-267.6-86.5-353.3-183.2c-80.4,30.4-164.9,45.8-251.3,45.8
					c-392.5,0-711.9-319.4-711.9-711.9c0-392.5,319.4-711.9,711.9-711.9c392.5,0,711.9,319.4,711.9,711.9
					c0,195.4-81.2,383.4-223.1,517.6c20.4,107.6,66.3,207.5,136.6,297l34.9,44.5L1294.3,2235.6z"/>
				<path class="st105" d="M1303,2226.9c-151.8-26.5-267.6-86.5-353.3-183.2c-80.4,30.4-164.9,45.8-251.3,45.8
					c-392.5,0-711.9-319.4-711.9-711.9c0-392.5,319.4-711.9,711.9-711.9c392.5,0,711.9,319.4,711.9,711.9
					c0,195.4-81.2,383.4-223.1,517.6c20.4,107.6,66.3,207.5,136.6,297l34.9,44.5L1303,2226.9z"/>
				<path class="st106" d="M1311.8,2218.2c-151.8-26.5-267.6-86.5-353.3-183.2c-80.4,30.4-164.9,45.8-251.3,45.8
					c-392.5,0-711.9-319.4-711.9-711.9C-4.8,976.4,314.6,657,707.1,657c392.5,0,711.9,319.4,711.9,711.9
					c0,195.4-81.2,383.4-223.1,517.6c20.4,107.6,66.3,207.5,136.6,297l34.9,44.5L1311.8,2218.2z"/>
				<path class="st107" d="M1320.5,2209.5c-151.8-26.5-267.6-86.5-353.3-183.2c-80.4,30.4-164.9,45.8-251.3,45.8
					c-392.5,0-711.9-319.4-711.9-711.9c0-392.5,319.4-711.9,711.9-711.9c392.5,0,711.9,319.4,711.9,711.9
					c0,195.4-81.2,383.4-223.1,517.6c20.4,107.6,66.3,207.5,136.6,297l34.9,44.5L1320.5,2209.5z"/>
				<path class="st108" d="M1329.2,2200.8c-151.8-26.5-267.6-86.5-353.3-183.2c-80.4,30.4-164.9,45.8-251.3,45.8
					c-392.5,0-711.9-319.4-711.9-711.9C12.7,959,332,639.6,724.5,639.6c392.5,0,711.9,319.4,711.9,711.9
					c0,195.4-81.2,383.4-223.1,517.6c20.4,107.6,66.3,207.5,136.6,297l34.9,44.5L1329.2,2200.8z"/>
				<path class="st109" d="M1337.9,2192.1c-151.8-26.5-267.6-86.5-353.3-183.2c-80.4,30.4-164.9,45.8-251.3,45.8
					c-392.5,0-711.9-319.4-711.9-711.9c0-392.5,319.4-711.9,711.9-711.9c392.5,0,711.9,319.4,711.9,711.9
					c0,195.4-81.2,383.4-223.1,517.6c20.4,107.6,66.3,207.5,136.6,297l34.9,44.5L1337.9,2192.1z"/>
				<path class="st110" d="M1346.6,2183.4c-151.8-26.5-267.6-86.5-353.3-183.2c-80.4,30.4-164.9,45.8-251.3,45.8
					c-392.5,0-711.9-319.4-711.9-711.9c0-392.5,319.4-711.9,711.9-711.9c392.5,0,711.9,319.4,711.9,711.9
					c0,195.4-81.2,383.4-223.1,517.6c20.4,107.6,66.3,207.5,136.6,297l34.9,44.5L1346.6,2183.4z"/>
				<path class="st111" d="M1355.3,2174.7c-151.8-26.5-267.6-86.5-353.3-183.2c-80.4,30.4-164.9,45.8-251.3,45.8
					c-392.5,0-711.9-319.4-711.9-711.9c0-392.5,319.4-711.9,711.9-711.9c392.5,0,711.9,319.4,711.9,711.9
					c0,195.4-81.2,383.4-223.1,517.6c20.4,107.6,66.3,207.5,136.6,297l34.9,44.5L1355.3,2174.7z"/>
				<path class="st112" d="M1364,2166c-151.8-26.5-267.6-86.5-353.3-183.2c-80.4,30.4-164.9,45.8-251.3,45.8
					c-392.5,0-711.9-319.4-711.9-711.9c0-392.5,319.4-711.9,711.9-711.9c392.5,0,711.9,319.4,711.9,711.9
					c0,195.4-81.2,383.4-223.1,517.6c20.4,107.6,66.3,207.5,136.6,297l34.9,44.5L1364,2166z"/>
				<path class="st113" d="M1372.7,2157.3c-151.8-26.5-267.6-86.5-353.3-183.2c-80.4,30.4-164.9,45.8-251.3,45.8
					c-392.5,0-711.9-319.4-711.9-711.9c0-392.5,319.4-711.9,711.9-711.9c392.5,0,711.9,319.4,711.9,711.9
					c0,195.4-81.2,383.4-223.1,517.6c20.4,107.6,66.3,207.5,136.6,297l34.9,44.5L1372.7,2157.3z"/>
				<path class="st114" d="M1381.4,2148.5c-151.8-26.5-267.6-86.5-353.3-183.2c-80.4,30.4-164.9,45.8-251.3,45.8
					c-392.5,0-711.9-319.4-711.9-711.9c0-392.5,319.4-711.9,711.9-711.9c392.5,0,711.9,319.4,711.9,711.9
					c0,195.4-81.2,383.4-223.1,517.6c20.4,107.6,66.3,207.5,136.6,297l34.9,44.5L1381.4,2148.5z"/>
				<path class="st115" d="M1390.1,2139.8c-151.8-26.5-267.6-86.5-353.3-183.2c-80.4,30.4-164.9,45.8-251.3,45.8
					c-392.5,0-711.9-319.4-711.9-711.9c0-392.5,319.4-711.9,711.9-711.9c392.5,0,711.9,319.4,711.9,711.9
					c0,195.4-81.2,383.4-223.1,517.6c20.4,107.6,66.3,207.5,136.6,297l34.9,44.5L1390.1,2139.8z"/>
				<path class="st116" d="M1398.8,2131.1c-151.8-26.5-267.6-86.5-353.3-183.2c-80.4,30.4-164.9,45.8-251.3,45.8
					c-392.5,0-711.9-319.4-711.9-711.9C82.3,889.3,401.6,570,794.2,570c392.5,0,711.9,319.4,711.9,711.9
					c0,195.4-81.2,383.4-223.1,517.6c20.4,107.6,66.3,207.5,136.6,297l34.9,44.5L1398.8,2131.1z"/>
				<path class="st117" d="M1407.5,2122.4c-151.8-26.5-267.6-86.5-353.3-183.2c-80.4,30.4-164.9,45.8-251.3,45.8
					C410.3,1985,91,1665.7,91,1273.1c0-392.5,319.4-711.9,711.9-711.9c392.5,0,711.9,319.4,711.9,711.9
					c0,195.4-81.2,383.4-223.1,517.6c20.4,107.6,66.3,207.5,136.6,297l34.9,44.5L1407.5,2122.4z"/>
				<path class="st118" d="M1416.2,2113.7c-151.8-26.5-267.6-86.5-353.3-183.2c-80.4,30.4-164.9,45.8-251.3,45.8
					c-392.5,0-711.9-319.4-711.9-711.9c0-392.5,319.4-711.9,711.9-711.9c392.5,0,711.9,319.4,711.9,711.9
					c0,195.4-81.2,383.4-223.1,517.6c20.4,107.6,66.3,207.5,136.6,297l34.9,44.5L1416.2,2113.7z"/>
				<path class="st119" d="M1424.9,2105c-151.8-26.5-267.6-86.5-353.3-183.2c-80.4,30.4-164.9,45.8-251.3,45.8
					c-392.5,0-711.9-319.4-711.9-711.9c0-392.5,319.4-711.9,711.9-711.9c392.5,0,711.9,319.4,711.9,711.9
					c0,195.4-81.2,383.4-223.1,517.6c20.4,107.6,66.3,207.5,136.6,297l34.9,44.5L1424.9,2105z"/>
				<path class="st120" d="M1433.6,2096.3c-151.8-26.5-267.6-86.5-353.3-183.2c-80.4,30.4-164.9,45.8-251.3,45.8
					c-392.5,0-711.9-319.4-711.9-711.9c0-392.5,319.4-711.9,711.9-711.9c392.5,0,711.9,319.4,711.9,711.9
					c0,195.4-81.2,383.4-223.1,517.6c20.4,107.6,66.3,207.5,136.6,297l34.9,44.5L1433.6,2096.3z"/>
				<path class="st121" d="M1442.3,2087.6c-151.8-26.5-267.6-86.5-353.3-183.2c-80.4,30.4-164.9,45.8-251.3,45.8
					c-392.5,0-711.9-319.4-711.9-711.9c0-392.5,319.4-711.9,711.9-711.9c392.5,0,711.9,319.4,711.9,711.9
					c0,195.4-81.2,383.4-223.1,517.6c20.4,107.6,66.3,207.5,136.6,297l34.9,44.5L1442.3,2087.6z"/>
				<path class="st122" d="M1451,2078.9c-151.8-26.5-267.6-86.5-353.3-183.2c-80.4,30.4-164.9,45.8-251.3,45.8
					c-392.5,0-711.9-319.4-711.9-711.9c0-392.5,319.4-711.9,711.9-711.9c392.5,0,711.9,319.4,711.9,711.9
					c0,195.4-81.2,383.4-223.1,517.6c20.4,107.6,66.3,207.5,136.6,297l34.9,44.5L1451,2078.9z"/>
				<path class="st123" d="M1459.7,2070.2c-151.8-26.5-267.6-86.5-353.3-183.2c-80.4,30.4-164.9,45.8-251.3,45.8
					c-392.5,0-711.9-319.4-711.9-711.9c0-392.5,319.4-711.9,711.9-711.9c392.5,0,711.9,319.4,711.9,711.9
					c0,195.4-81.2,383.4-223.1,517.6c20.4,107.6,66.3,207.5,136.6,297l34.9,44.5L1459.7,2070.2z"/>
				<path class="st124" d="M1468.4,2061.5c-151.8-26.5-267.6-86.5-353.3-183.2c-80.4,30.4-164.9,45.8-251.3,45.8
					c-392.5,0-711.9-319.4-711.9-711.9c0-392.5,319.4-711.9,711.9-711.9c392.5,0,711.9,319.4,711.9,711.9
					c0,195.4-81.2,383.4-223.1,517.6c20.4,107.6,66.3,207.5,136.6,297l34.9,44.5L1468.4,2061.5z"/>
				<path class="st125" d="M1477.1,2052.8c-151.8-26.5-267.6-86.5-353.3-183.2c-80.4,30.4-164.9,45.8-251.3,45.8
					c-392.5,0-711.9-319.4-711.9-711.9c0-392.5,319.4-711.9,711.9-711.9c392.5,0,711.9,319.4,711.9,711.9
					c0,195.4-81.2,383.4-223.1,517.6c20.4,107.6,66.3,207.5,136.6,297l34.9,44.5L1477.1,2052.8z"/>
				<path class="st126" d="M1485.8,2044.1c-151.8-26.5-267.6-86.5-353.3-183.2c-80.4,30.4-164.9,45.8-251.3,45.8
					c-392.5,0-711.9-319.4-711.9-711.9c0-392.5,319.4-711.9,711.9-711.9c392.5,0,711.9,319.4,711.9,711.9
					c0,195.4-81.2,383.4-223.1,517.6c20.4,107.6,66.3,207.5,136.6,297l34.9,44.5L1485.8,2044.1z"/>
				<path class="st127" d="M1494.5,2035.4c-151.8-26.5-267.6-86.5-353.3-183.2c-80.4,30.4-164.9,45.8-251.3,45.8
					c-392.5,0-711.9-319.4-711.9-711.9c0-392.5,319.4-711.9,711.9-711.9c392.5,0,711.9,319.4,711.9,711.9
					c0,195.4-81.2,383.4-223.1,517.6c20.4,107.6,66.3,207.5,136.6,297l34.9,44.5L1494.5,2035.4z"/>
				<path class="st128" d="M1503.2,2026.7c-151.8-26.5-267.6-86.5-353.3-183.2c-80.4,30.4-164.9,45.8-251.3,45.8
					c-392.5,0-711.9-319.4-711.9-711.9c0-392.5,319.4-711.9,711.9-711.9c392.5,0,711.9,319.4,711.9,711.9
					c0,195.4-81.2,383.4-223.1,517.6c20.4,107.6,66.3,207.5,136.6,297l34.9,44.5L1503.2,2026.7z"/>
				<path class="st129" d="M1512,2018c-151.8-26.5-267.6-86.5-353.3-183.2c-80.4,30.4-164.9,45.8-251.3,45.8
					c-392.5,0-711.9-319.4-711.9-711.9c0-392.5,319.4-711.9,711.9-711.9c392.5,0,711.9,319.4,711.9,711.9
					c0,195.4-81.2,383.4-223.1,517.6c20.4,107.6,66.3,207.5,136.6,297l34.9,44.5L1512,2018z"/>
				<path class="st130" d="M1520.7,2009.3c-151.8-26.5-267.6-86.5-353.3-183.2c-80.4,30.4-164.9,45.8-251.3,45.8
					c-392.5,0-711.9-319.4-711.9-711.9c0-392.5,319.4-711.9,711.9-711.9c392.5,0,711.9,319.4,711.9,711.9
					c0,195.4-81.2,383.4-223.1,517.6c20.4,107.6,66.3,207.5,136.6,297l34.9,44.5L1520.7,2009.3z"/>
				<path class="st131" d="M1529.4,2000.6c-151.8-26.5-267.6-86.5-353.3-183.2c-80.4,30.4-164.9,45.8-251.3,45.8
					c-392.5,0-711.9-319.4-711.9-711.9c0-392.5,319.4-711.9,711.9-711.9c392.5,0,711.9,319.4,711.9,711.9
					c0,195.4-81.2,383.4-223.1,517.6c20.4,107.6,66.3,207.5,136.6,297l34.9,44.5L1529.4,2000.6z"/>
				<path class="st132" d="M1538.1,1991.9c-151.8-26.5-267.6-86.5-353.3-183.2c-80.4,30.4-164.9,45.8-251.3,45.8
					c-392.5,0-711.9-319.4-711.9-711.9c0-392.5,319.4-711.9,711.9-711.9c392.5,0,711.9,319.4,711.9,711.9
					c0,195.4-81.2,383.4-223.1,517.6c20.4,107.6,66.3,207.5,136.6,297l34.9,44.5L1538.1,1991.9z"/>
				<path class="st133" d="M1546.8,1983.2c-151.8-26.5-267.6-86.5-353.3-183.2c-80.4,30.4-164.9,45.8-251.3,45.8
					c-392.5,0-711.9-319.4-711.9-711.9c0-392.5,319.4-711.9,711.9-711.9c392.5,0,711.9,319.4,711.9,711.9
					c0,195.4-81.2,383.4-223.1,517.6c20.4,107.6,66.3,207.5,136.6,297l34.9,44.5L1546.8,1983.2z"/>
				<path class="st134" d="M1555.5,1974.5c-151.8-26.5-267.6-86.5-353.3-183.2c-80.4,30.4-164.9,45.8-251.3,45.8
					c-392.5,0-711.9-319.4-711.9-711.9c0-392.5,319.4-711.9,711.9-711.9c392.5,0,711.9,319.4,711.9,711.9
					c0,195.4-81.2,383.4-223.1,517.6c20.4,107.6,66.3,207.5,136.6,297l34.9,44.5L1555.5,1974.5z"/>
				<path class="st135" d="M1564.2,1965.8c-151.8-26.5-267.6-86.5-353.3-183.2c-80.4,30.4-164.9,45.8-251.3,45.8
					c-392.5,0-711.9-319.4-711.9-711.9c0-392.5,319.4-711.9,711.9-711.9c392.5,0,711.9,319.4,711.9,711.9
					c0,195.4-81.2,383.4-223.1,517.6c20.4,107.6,66.3,207.5,136.6,297l34.9,44.5L1564.2,1965.8z"/>
				<path class="st136" d="M1572.9,1957.1c-151.8-26.5-267.6-86.5-353.3-183.2c-80.4,30.4-164.9,45.8-251.3,45.8
					c-392.5,0-711.9-319.4-711.9-711.9c0-392.5,319.4-711.9,711.9-711.9c392.5,0,711.9,319.4,711.9,711.9
					c0,195.4-81.2,383.4-223.1,517.6c20.4,107.6,66.3,207.5,136.6,297l34.9,44.5L1572.9,1957.1z"/>
				<path class="st137" d="M1581.6,1948.4c-151.8-26.5-267.6-86.5-353.3-183.2c-80.4,30.4-164.9,45.8-251.3,45.8
					c-392.5,0-711.9-319.4-711.9-711.9c0-392.5,319.4-711.9,711.9-711.9c392.5,0,711.9,319.4,711.9,711.9
					c0,195.4-81.2,383.4-223.1,517.6c20.4,107.6,66.3,207.5,136.6,297l34.9,44.5L1581.6,1948.4z"/>
				<path class="st138" d="M1590.3,1939.7c-151.8-26.5-267.6-86.5-353.3-183.2c-80.4,30.4-164.9,45.8-251.3,45.8
					c-392.5,0-711.9-319.4-711.9-711.9c0-392.5,319.4-711.9,711.9-711.9c392.5,0,711.9,319.4,711.9,711.9
					c0,195.4-81.2,383.4-223.1,517.6c20.4,107.6,66.3,207.5,136.6,297l34.9,44.5L1590.3,1939.7z"/>
				<path class="st139" d="M1599,1930.9c-151.8-26.5-267.6-86.5-353.3-183.2c-80.4,30.4-164.9,45.8-251.3,45.8
					c-392.5,0-711.9-319.4-711.9-711.9c0-392.5,319.4-711.9,711.9-711.9c392.5,0,711.9,319.4,711.9,711.9
					c0,195.4-81.2,383.4-223.1,517.6c20.4,107.6,66.3,207.5,136.6,297l34.9,44.5L1599,1930.9z"/>
				<path class="st140" d="M1607.7,1922.2c-151.8-26.5-267.6-86.5-353.3-183.2c-80.4,30.4-164.9,45.8-251.3,45.8
					c-392.5,0-711.9-319.4-711.9-711.9c0-392.5,319.4-711.9,711.9-711.9c392.5,0,711.9,319.4,711.9,711.9
					c0,195.4-81.2,383.4-223.1,517.6c20.4,107.6,66.3,207.5,136.6,297l34.9,44.5L1607.7,1922.2z"/>
				<path class="st141" d="M1616.4,1913.5c-151.8-26.5-267.6-86.5-353.3-183.2c-80.4,30.4-164.9,45.8-251.3,45.8
					c-392.5,0-711.9-319.4-711.9-711.9c0-392.5,319.4-711.9,711.9-711.9c392.5,0,711.9,319.4,711.9,711.9
					c0,195.4-81.2,383.4-223.1,517.6c20.4,107.6,66.3,207.5,136.6,297l34.9,44.5L1616.4,1913.5z"/>
				<path class="st142" d="M1625.1,1904.8c-151.8-26.5-267.6-86.5-353.3-183.2c-80.4,30.4-164.9,45.8-251.3,45.8
					c-392.5,0-711.9-319.4-711.9-711.9c0-392.5,319.4-711.9,711.9-711.9c392.5,0,711.9,319.4,711.9,711.9
					c0,195.4-81.2,383.4-223.1,517.6c20.4,107.6,66.3,207.5,136.6,297l34.9,44.5L1625.1,1904.8z"/>
				<path class="st143" d="M1633.8,1896.1c-151.8-26.5-267.6-86.5-353.3-183.2c-80.4,30.4-164.9,45.8-251.3,45.8
					c-392.5,0-711.9-319.4-711.9-711.9c0-392.5,319.4-711.9,711.9-711.9s711.9,319.4,711.9,711.9c0,195.4-81.2,383.4-223.1,517.6
					c20.4,107.6,66.3,207.5,136.6,297l34.9,44.5L1633.8,1896.1z"/>
				<path class="st144" d="M1642.5,1887.4c-151.8-26.5-267.6-86.5-353.3-183.2c-80.4,30.4-164.9,45.8-251.3,45.8
					c-392.5,0-711.9-319.4-711.9-711.9c0-392.5,319.4-711.9,711.9-711.9s711.9,319.4,711.9,711.9c0,195.4-81.2,383.4-223.1,517.5
					c20.4,107.6,66.3,207.5,136.6,297l34.9,44.5L1642.5,1887.4z"/>
				<path class="st145" d="M1651.2,1878.7c-151.8-26.5-267.6-86.5-353.3-183.2c-80.4,30.4-164.9,45.8-251.3,45.8
					c-392.5,0-711.9-319.4-711.9-711.9c0-392.5,319.4-711.9,711.9-711.9s711.9,319.4,711.9,711.9c0,195.4-81.2,383.4-223.1,517.5
					c20.4,107.6,66.3,207.5,136.6,297l34.9,44.5L1651.2,1878.7z"/>
			</g>
		</g>
	</g>
	
		<linearGradient id="SVGID_00000153696847796126845800000012433741400285127100_" gradientUnits="userSpaceOnUse" x1="816.1186" y1="1718.2122" x2="1527.8634" y2="485.4341">
		<stop  offset="0.1684" style="stop-color:#CAD8E1"/>
		<stop  offset="0.3384" style="stop-color:#D8E2E9"/>
		<stop  offset="0.7586" style="stop-color:#F4F7F9"/>
		<stop  offset="1" style="stop-color:#FFFFFF"/>
	</linearGradient>
	<path style="fill:url(#SVGID_00000153696847796126845800000012433741400285127100_);" d="M1651.2,1878.7
		c-151.8-26.5-267.6-86.5-353.3-183.2c-80.4,30.4-164.9,45.8-251.3,45.8c-392.5,0-711.9-319.4-711.9-711.9
		c0-392.5,319.4-711.9,711.9-711.9s711.9,319.4,711.9,711.9c0,195.4-81.2,383.4-223.1,517.5c20.4,107.6,66.3,207.5,136.6,297
		l34.9,44.5L1651.2,1878.7z"/>
	
		<linearGradient id="SVGID_00000035515199053937681650000005642663497231087285_" gradientUnits="userSpaceOnUse" x1="847.6791" y1="1710.5109" x2="1431.2059" y2="459.1334">
		<stop  offset="0" style="stop-color:#FFFFFF"/>
		<stop  offset="0.2302" style="stop-color:#F9FBFC"/>
		<stop  offset="0.5496" style="stop-color:#E7EEF2"/>
		<stop  offset="0.9197" style="stop-color:#C9DAE3"/>
		<stop  offset="1" style="stop-color:#C2D5DF"/>
	</linearGradient>
	<path style="fill:url(#SVGID_00000035515199053937681650000005642663497231087285_);" d="M1734.1,1040.3
		c0-381.2-309-690.2-690.2-690.2c-381.2,0-690.2,309-690.2,690.2s309,690.2,690.2,690.2c91.1,0,178-17.8,257.7-49.9
		c77.2,92.3,188.2,159.3,350.7,187.7c-76.5-97.4-123.4-203.7-143-318.2C1647.4,1423.8,1734.1,1242.1,1734.1,1040.3z"/>
</g>
<g id="Layer_2">
	<path class="st9" d="M757.7,610.6c-3.5-0.1-7-0.1-10.4-0.2c-2.3-0.4-4.5-0.8-6.8-1.3c-2.9-0.2-5.8-0.4-8.6-0.7
		c-9.3-5.7-16-14-22.9-22.2c-1.6-6.5-3.2-13.1-4.8-19.6c-0.3-1.8-0.6-3.5-0.9-5.3c0-2.7,0-5.4,0-8.1c0.3-1.3,0.5-2.7,0.8-4
		C709,525,726,509.1,748,507.6c19.9-1.4,47.5,14.8,49.7,41.9c44,5.3,70.7,35.2,93.5,68c24-6.1,47.2-12.1,70.4-18
		c1.1-0.3,2.2-0.6,3.3-0.9c2.8-0.3,5.7-0.5,8.5-0.8c1.8-0.4,3.5-0.9,5.3-1.3c1.7-0.1,3.5-0.3,5.2-0.4c1.3-0.3,2.7-0.7,4-1
		c6.6-0.4,13.2-0.8,19.8-1.1c1.3-0.4,2.6-0.7,4-1.1c0.9,0,1.8,0,2.7,0c5.3-0.1,10.6-0.2,15.8-0.2c0.8-0.1,1.6-0.2,2.4-0.3
		c8.9,0,17.7,0,26.6,0c5.7,0.1,11.3,0.3,17,0.4c0.4,0,0.9,0,1.3,0c4.8,0.3,9.7,0.5,14.5,0.8c0.8-0.1,1.6-0.1,2.4-0.2
		c1.8,0.3,3.6,0.5,5.5,0.8c1.5,0.1,3,0.3,4.6,0.4c3.4,0.5,6.7,0.9,10.1,1.4c2.6,0.2,5.2,0.3,7.8,0.5c1.3,0.3,2.7,0.7,4,1
		c1.3,0.1,2.5,0.2,3.8,0.3c26.3,4.1,51.9,11.1,76.7,21c13.4-19.9,28.1-38,47.9-51.2c5.4-3.6,11.2-6.6,17.2-9.1
		c7-2.9,14.4-4.8,21.6-7.4c1.4-0.5,3.2-1.7,3.6-2.9c0.9-3.4,1.2-7,1.7-10.5c0,0-0.1,0.1-0.1,0.1c2.2-3.9,4.4-7.7,6.6-11.6
		c2.2-2.2,4.3-4.4,6.5-6.7c1.8-1.3,3.6-2.5,5.3-3.8c9-2.8,17.8-7.3,26.9-7.9c18-1.1,32.5,7.7,42.1,22.3c11.4,17.3,9.5,36.1,1.8,54.6
		c-10.7,15.2-25,24.4-43.8,25.1c-13.4,0.5-24.5-5.3-33.8-14.9c-1.8-1.9-5.4-3.9-7.5-3.3c-24.8,6.8-42.1,23-55.3,44.6
		c10.4,5.8,20.4,11,30.1,16.8c37.4,22.4,70.6,50.1,101.1,81.3c24,24.5,42.1,53,57.7,83.4c10.6,20.6,19.7,41.8,25.5,64.2
		c1.3,5.2,1.6,10.7,2.3,16c-0.8,2.6-1.6,5.3-2.5,7.9c-2.7,3-5.4,6.1-8.1,9.1c-7.1,8.7-14.2,17.5-21.3,26.2c0,0,0.1-0.1,0.1-0.1
		c-1.4,1.4-2.9,2.7-4.3,4.1c-2.9,2.7-5.7,5.5-8.6,8.2c-1.4,1.2-2.8,2.5-4.1,3.7c-0.4,0.4-0.8,0.8-1.3,1.2c-0.9,0.9-1.9,1.8-2.8,2.7
		c-0.4,0.4-0.8,0.8-1.2,1.2c-1.5,1.3-3,2.6-4.5,4c-2,1.7-4.1,3.5-6.1,5.2c-1.3,1-2.5,2-3.8,2.9c-23.3,14.2-46.7,28.3-70,42.5
		c-18.5,7-36.6,15.6-55.6,20.8c-29.4,8-59.2,15.2-89.3,19.8c-30.4,4.6-61.3,6.6-92,7.9c-28.4,1.2-56.9-0.1-85.3-0.2
		c-4.8-0.4-9.7-0.9-14.5-1.3c-3.4-0.1-6.9-0.3-10.3-0.4c-1.8-0.2-3.7-0.4-5.5-0.7c-2.2-0.3-4.3-0.6-6.5-0.9
		c-1.3-0.1-2.6-0.1-3.9-0.2c-7.5-1-15-2-22.5-2.9c-12.2-1.4-24.5-2.7-36.7-4c-17.9-3.9-36.2-6.5-53.6-12.1
		c-24.5-7.8-48.8-16.4-72.3-26.9c-30.6-13.7-62.1-26.3-88.5-48.1c-0.9-0.8-1.9-1.6-2.8-2.4c-5.6-5.9-11.2-11.8-16.9-17.6
		c-6.3-7.7-12.6-15.5-18.9-23.2c-0.8-0.9-1.5-1.8-2.3-2.7c-1-1.3-2-2.6-3-3.8c-0.7-1-1.3-2.1-2-3.1c-1.7-2.9-3.4-5.8-5.1-8.7
		c-0.5-1.1-1-2.1-1.5-3.2c0.1-0.4,0-0.7-0.3-0.9c-0.6-5.7-1.2-11.5-1.8-17.2c0.2-1.3,0.3-2.6,0.5-3.8c0.3-0.9,0.6-1.8,1-2.7
		c0.2-1.6,0.4-3.3,0.6-4.9c0.7-2.7,1.4-5.3,2.1-8c0.6-1.7,1.2-3.5,1.8-5.2c0.9-1.3,1.9-2.7,2.8-4c0.3-0.1,0.4-0.4,0.2-0.7
		c0.5-1.2,1.1-2.3,1.6-3.5c0.7-2,1.5-3.9,2.2-5.9c0.9-2,1.8-4,2.8-5.9c2.5-5.6,5-11.2,7.5-16.8c3.4-6.2,6.8-12.4,10.2-18.6
		c0.6-1.1,1.2-2.2,1.8-3.4c1.2-1.9,2.4-3.9,3.6-5.8c1.8-3.1,3.6-6.1,5.4-9.2c1.8-3.1,3.6-6.1,5.4-9.2c6.1-8.4,12.2-16.7,18.3-25.1
		c3.2-3.8,6.4-7.6,9.6-11.4c0,0-0.1,0.1-0.1,0.1c3.8-4.1,7.6-8.2,11.4-12.3c2.7-3,5.4-6,8-9c2.4-1.9,4.7-3.7,7.1-5.6
		c0.4,0,0.7-0.2,0.7-0.6c2.3-2.3,4.7-4.6,7-6.8c0,0-0.1,0.1-0.1,0.1c10.1-8.4,20.2-16.9,30.3-25.3c0.4-0.3,0.7-0.6,1.1-0.9
		c0.2,0,0.5,0,0.6-0.1c22-14.4,43-30.6,67.7-40.5c1.1-0.4,2.2-4,1.6-5c-13.3-19.3-29.2-35.5-52.1-43.1c-2-0.7-5.2,0.1-7,1.3
		c-5.7,3.9-10.9,8.5-16.4,12.8C767.2,607.4,762.5,609,757.7,610.6z M1112.2,861.2c0.2-2.1,0.4-4.2,0.6-6.3
		c-1.2-9.6-5.1-14.4-13.2-16.5c-1.3-0.4-2.5-0.7-3.8-1.1c-1.7,0-3.5-0.1-5.2-0.1c-1,0.3-2,0.6-3,0.8c-0.8,0.6-1.6,1.3-2.4,1.9
		c-0.8,1-1.6,2-2.4,3c-0.9,4-1.7,7.9-2.6,11.9c-0.3,1.3-0.6,2.6-0.9,3.9c-0.1,0.9-0.3,1.8-0.4,2.7c-0.4,0.9-0.9,1.7-1.3,2.6
		c-7,11-18,14.7-30,16.3c-12.7,1.7-30.4-8.7-27.4-28.7c0.9-6.3-1.5-11.2-7.3-14.1c-5.8-2.9-11-1.3-15.9,2.4c-8.5,6.3-10.8,14-7.2,25
		c4.6,14.1,12.8,26,23.9,35.5c15.6,13.3,34.3,17.4,53.5,10.7c22.3-7.8,34.5-26.6,44.8-46.7C1112.3,863.5,1112.1,862.2,1112.2,861.2z
		 M815.6,720.8c-1.3,0.3-2.7,0.6-4,0.9c-2.4,0.2-4.8,0-7.1,0.5c-29.5,6.7-51.8,23.8-69.1,48c-0.9,1.4-1.8,2.8-2.8,4.2
		c-5.2,11.4-10.4,22.8-15.7,34.2c-0.4,0.9-0.7,1.8-1.1,2.6c-1.4,11.4-2.8,22.8-4.2,34.2c0,1.8,0,3.5,0,5.3
		c2.8,12.1,4.2,24.7,8.6,36.1c13.1,34.4,39.4,56.1,72.6,69.8c14.3,5.9,29.4,8.5,45,6.6c34.1-4.1,62.1-19.9,85.3-44.7
		c23.3-24.9,32.6-55.1,28.3-88.3c-7-53.7-38.7-88-89.1-105.7C847.2,719.4,831.4,719,815.6,720.8z M1266.2,719.2
		c-8.9,1.2-18,1.4-26.6,3.7c-35.5,9.5-62.1,30.9-79.2,63.3c-19.4,36.9-21,74.7-1.1,111.9c14.7,27.5,37.7,46.5,66.4,58.1
		c19.2,7.8,39.2,10.8,59.8,6.2c15.6-3.4,29.3-10.8,42.9-19c51-31,70.7-86.7,50-142.5C1362.9,758.7,1313.5,717.9,1266.2,719.2z"/>
	<path class="st148" d="M1070.2,1139.2c0-5.3-0.1-10.7-0.1-16c0.1-2.7,0.3-5.3,0.5-8.8c14.1,0,28.5,1,42.7-0.2
		c33.4-2.7,66.9-5.7,100.1-10c38.1-4.9,75.6-13.4,111.6-27.1c17.9-6.8,34.9-15.9,52.2-24.4c11.6-5.6,22.8-11.9,34.2-17.8
		c0,0,0.7,0,0.7,0l0.3-0.6c16-10.4,32.6-20.2,47.9-31.5c11.4-8.4,21.3-18.9,32.4-28.9c1.1,8.8,3,18.7,3.6,28.6
		c1.1,20.7,2.6,41.4,2,62c-1.4,48.1-8.5,95.3-24.2,141c-0.5,1.3-0.5,2.8-0.8,4.3c-1.7,4.3-3.4,8.6-5.1,12.9c-1,2.9-2,5.9-2.9,8.8
		c-2.1,4.8-4.1,9.7-6.2,14.5c-2.3,4.9-4.6,9.8-7,14.7c-0.5,1-1.1,1.9-1.6,2.9l-0.4,0.3c0,0,0.1,0.5,0.1,0.5
		c-0.9,1.7-1.8,3.4-2.7,5.1c-1.5,2.9-3.1,5.8-4.6,8.8c-0.6,1.1-1.3,2.2-1.9,3.2c-0.7,1.4-1.4,2.7-2.1,4.1c-0.6,1.2-1.3,2.5-1.9,3.7
		c-0.7,1.2-1.4,2.4-2.2,3.7c-1.2,2.2-2.4,4.5-3.6,6.7c-1.4,2.1-2.8,4.3-4.2,6.4c0,0-0.3,0.5-0.3,0.5c-1.7,2.3-3.4,4.6-5,6.9
		c-1.1,1.5-2.2,3-3.3,4.5c-1,1.4-2.1,2.8-3.1,4.2c-1.7,2.6-3.4,5.3-5.1,7.9c0,0,0.3-0.1,0.3-0.1l-0.4-0.2c-0.7,0.8-1.4,1.7-2.1,2.5
		c-1.5,2-3,3.9-4.6,5.9c-2.5,3.2-4.9,6.4-7.4,9.6c-12.4,13.7-24.8,27.5-37.1,41.2c-2.7,2.5-5.3,5-8,7.6c-1.6,1.4-3.3,2.9-4.9,4.3
		c-21.3,15.6-42.6,31.1-63.9,46.7c-30.2,13.8-60.4,27.6-90.5,41.4c-3.9,1-7.8,2-11.7,3.1c-1.4,0.5-2.9,0.9-4.3,1.4
		c-2.5,0.7-5,1.5-7.6,2.2c-4.3,1.4-8.6,2.7-12.8,4.1c-6.4,1.8-12.8,3.6-19.1,5.4c-7.3,1-14.6,1.9-22,2.9c-1,0-1.9,0-2.9,0
		c-4.9,0.6-9.8,1.1-14.6,1.7c-2.4,0.4-4.9,0.9-7.3,1.3c-5.4,0-10.8,0.1-16.2,0.1c-0.6-3.5-1.2-6.9-1.9-10.4
		c0.1-9.3,0.2-18.6,0.3-27.9c0.3-4.1,0.8-8.2,0.8-12.3c0.1-55.9,0.2-111.8,0.2-167.7c0-5.3-0.2-10.6-0.3-16c0-2.4,0-4.8,0-7.3
		c0.1-7.3,0.5-14.5,0.4-21.8C1071.7,1211.5,1070.9,1175.3,1070.2,1139.2z M1291,1238.2c0.2-23.2-22.3-44.1-48.1-44.5
		c-25.2-0.4-52.4,24.7-52.5,48.4c-0.2,25.1,22,47.2,47.7,47.5C1266.3,1290.1,1290.8,1266.3,1291,1238.2z M1420.2,1146.6
		c0-26-21-47.8-46.2-47.8c-30.5,0-46,21.4-46.5,46.3c-0.6,25.2,21.7,47,47.3,46.3C1401.2,1190.6,1420.4,1173.8,1420.2,1146.6z"/>
	<path class="st148" d="M951.6,1107.8c4.4,0.2,8.8,0.4,13.2,0.6c3.9,0.4,7.8,0.8,11.7,1.3c2.9,0.1,5.8,0.3,8.8,0.4
		c1,0.3,2,0.6,3,0.9c15.9,1,31.7,1.9,47.7,2.9c0,0.9,0,2.1,0,3.3c-0.5,3-1.5,6-1.5,9.1c-0.1,24.4-0.1,48.7-0.1,73.1
		c0,11.2,0.2,22.4,0.3,33.6c0,8.3,0,16.6,0,24.9c0,4.4,0,8.8,0,13.1c0,1,0,2,0,2.9c0,9.3,0.1,18.5,0.1,27.8c-0.2,1.7-0.5,3.4-0.5,5
		c0.1,35,0.1,69.9,0.3,104.9c0.1,14.5,0.5,29.1,0.8,43.6c0.3,13.2,0.6,26.4,1,39.6c0.1,5.8,0.2,11.6,0.3,17.4
		c-0.1,0.8-0.2,1.7-0.3,2.5c-0.5-0.1-0.9,0.1-1.2,0.5c-3.4,0-6.8,0.1-10.2,0.1c-4.3-0.3-8.6-0.5-13-0.8c-8.3-1.5-16.7-2.3-24.8-4.6
		c-27.5-7.6-54.8-15.8-82.2-23.7c-3.5-1.3-7-2.6-10.4-3.8c-1.4-0.6-2.8-1.3-4.2-1.9c-3-1.4-5.9-2.7-8.9-4.1
		c-19.4-11-38.9-22-58.3-33c-4.4-2.9-8.8-5.7-13.2-8.6c-1.5-1-2.9-2-4.4-3c-0.7-0.5-1.5-1-2.2-1.5c-1.2-0.9-2.5-1.7-3.7-2.6
		c-6.2-4.9-12.5-9.9-18.7-14.8c-1.1-1-2.1-2-3.2-3c-3.3-2.9-6.6-5.8-9.9-8.7c-1.1-1-2.1-2.1-3.2-3.1c-10.1-9.7-20.3-19.4-30.4-29.1
		c-1.1-1.3-2.3-2.6-3.4-3.9c-1.4-1.6-2.8-3.2-4.3-4.7c-4.8-5.6-9.6-11.1-14.4-16.7c-1-1.3-2-2.6-3-3.8c-0.9-1.2-1.8-2.5-2.8-3.7
		c-5.7-7.5-11.3-15.1-17-22.6c-3.6-5.4-7.3-10.8-10.9-16.2c-0.9-1.3-1.8-2.6-2.7-3.9c-1.8-2.7-3.6-5.3-5.3-8
		c-6-11.5-11.9-23-17.9-34.6c-0.7-2-1.4-4.1-2.1-6.1c-1.3-2.8-2.6-5.7-3.8-8.5c-1.1-2.5-2.3-5.1-3.4-7.6
		c-5.1-13.6-10.1-27.2-15.2-40.8c-0.4-2-0.8-4-1.2-6c-0.3-1-0.7-2-1-3c-0.2-1-0.3-1.9-0.5-2.9c-0.4-1.4-0.8-2.9-1.3-4.3
		c-0.2-1-0.4-2-0.6-3c-2.3-9.7-4.7-19.4-7-29.1c-0.4-3-0.9-5.9-1.3-8.9c-0.4-1.9-0.8-3.9-1.2-5.8c-0.1-2-0.2-3.9-0.3-5.9
		c-0.4-2.4-0.8-4.9-1.2-7.3c-0.2-3.9-0.4-7.8-0.7-11.7c-0.3-6.3-0.6-12.6-1-18.9c0-22.5,0.1-45,0.1-67.4c0.3-3.9,0.6-7.8,0.9-11.7
		c0.2-4.4,0.4-8.8,0.7-13.2c0.4-2.9,0.8-5.8,1.2-8.8c0.5-2.5,1-5.1,1.6-8.1c1.8,0.9,3.2,1.6,4.5,2.3c0.9,1.2,1.9,2.4,2.8,3.5
		c13.3,11.3,26,23.3,39.9,33.6c41.5,30.5,87.9,51.3,137.1,65.9c20.8,6.2,42.1,11.2,63.1,16.7c1,0.2,2,0.3,2.9,0.5
		c1,0.3,2,0.6,2.9,0.9c1,0.3,1.9,0.6,2.9,1c1.5,0.2,2.9,0.4,4.4,0.6c3.4,0.7,6.8,1.4,10.2,2.1c3.9,0.7,7.8,1.4,11.8,2.2
		c8.8,1.4,17.5,2.7,26.3,4.1c1.5,0.2,2.9,0.4,4.4,0.5c1,0.1,2,0.1,2.9,0.2c3.9,0.3,7.9,0.6,11.8,1
		C945.8,1107,948.7,1107.4,951.6,1107.8z M914.8,1241.1c-0.6-4.1-0.8-8.3-2-12.2c-8.8-29.9-48.7-44.7-76.1-28.4
		c-17.7,10.6-26,26.6-21.3,43.7c5.2,19.3,16.9,32.4,35.8,41C877.8,1297.4,916.3,1270.2,914.8,1241.1z M741.1,1099.6
		c-22.8,0.4-36.9,7.8-45.1,24.6c-9.1,18.6-4.8,35.8,7.4,51c8.4,10.4,20.7,14.7,34,13.3c18.3-2,32.2-11.2,40.9-28
		c12-23,6.3-44.9-15.6-55C754.8,1101.9,745.7,1100.8,741.1,1099.6z"/>
	<path class="st149" d="M839.4,754.1c28.6,3.2,50.7,17.5,65.9,41.4c23.1,36.1,14.9,87.6-23.6,114.6c-18,12.6-37.1,19.2-59.6,17.7
		c-36.5-2.5-68.3-28.7-75.3-64.9c-4.9-25.2-3-49.7,11.9-71.8c10.3-15.3,24.5-26,41.2-33c6.4-2.7,13.9-2.6,20.9-3.8
		C826.9,754.2,833.2,754.1,839.4,754.1z M813.7,787.9c-18,0.1-32.6,13-31.8,29.6c0.7,15.2,9.6,26.2,26.8,26.2
		c18.4,0,29.1-14.1,30-30.9C839.4,797.8,828.8,787.8,813.7,787.9z M886.1,873.7c-0.1-14-8.7-22.7-22.4-22.5
		c-12.3,0.2-22.9,10.2-22.9,21.6c0,12.8,10.9,24.9,22.3,24.9C873.7,897.6,886.1,884.7,886.1,873.7z"/>
	<path class="st150" d="M1263,929.2c-39-0.4-76.6-30.9-82.4-69.3c-7.1-46.6,15.8-91.6,65.1-104c53.5-13.5,103.3,27.7,107,74.6
		c2,24.5-3.2,46.6-18.8,65.6C1318.5,915,1290,929.9,1263,929.2z M1279.3,863.8c-3.2,4.3-7,8.4-3.8,14.4c6.2,20,25.6,25.7,40.2,11.8
		c9.5-9,10.2-17.5,2.2-27.8c-8-10.2-20-12.6-30-6.1c-1.4,1.1-2.7,2.2-4.1,3.3C1282.3,860.9,1280.8,862.3,1279.3,863.8z M1251.4,788
		c-17.4,0-31.3,13.2-31.2,29.5c0.1,15.4,11.8,27.2,26.8,27.1c17.7-0.1,31-13.9,30.9-32.1C1277.8,797.8,1267.2,788,1251.4,788z"/>
</g>
</svg>
